<?xml version="1.0" encoding="utf-8"?>
<!-- Generator: Adobe Illustrator 16.0.0, SVG Export Plug-In . SVG Version: 6.00 Build 0)  -->
<!DOCTYPE svg PUBLIC "-//W3C//DTD SVG 1.1//EN" "http://www.w3.org/Graphics/SVG/1.1/DTD/svg11.dtd">
<svg version="1.1" xmlns="http://www.w3.org/2000/svg" xmlns:xlink="http://www.w3.org/1999/xlink" x="0px" y="0px" width="3710px"
	 height="3710px" viewBox="0 0 3710 3710" enable-background="new 0 0 3710 3710" xml:space="preserve">
<g id="Background">
</g>
<g id="Illustration">
	<g>
		<path fill="#F4F7FA" d="M3218.521,1648.409c-76.155-498.473-388.393-1110.882-1005.251-1174.972
			c0,0-468.348-56.968-930.036,29.373c-274.012,51.242-514.281,203.781-666.313,423.016
			c-152.034,219.235-202.818,486.563-141.185,741.427c40.03,165.536,67.08,336.86,59.656,506.958
			c-12.92,296.041-5.487,572.373,281.814,748.924c256.526,157.64,579.368,296.672,887.364,321.023
			c209.313,16.549,444.041-10.23,645.779-64.726C3378.447,2901.713,3294.676,2146.882,3218.521,1648.409z"/>
		<g>
			<g>
				<defs>
					<path id="SVGID_1_" d="M1755.241,2854.473c-186.696-105.158-409.526-265.756-577.833-498.4
						c-42.952-59.371-308.292-426.141-172.715-564.998c47.758-48.913,104.929-28.237,169.924-92.518
						c77.014-76.167,46.039-153.948,71.217-289.388c15.023-80.816,58.988-317.328,239.541-358.896
						c107.893-24.839,259.68,21.057,348.138,103.311c129.75,120.649,97.826,295.876,38.683,591.428
						c-52.427,261.997-102.194,305.196-136.654,494.516C1709.967,2380.035,1695.66,2585.447,1755.241,2854.473z"/>
				</defs>
				<use xlink:href="#SVGID_1_"  overflow="visible" fill="#D8DEE8"/>
				<clipPath id="SVGID_2_">
					<use xlink:href="#SVGID_1_"  overflow="visible"/>
				</clipPath>
				<g opacity="0.5" clip-path="url(#SVGID_2_)">
					<g>
						<path fill="#FFFFFF" d="M1774.795,2879.297c42.824,58.432,90.775,112.721,143.824,162.786
							c162.518,153.374,364.7,262.942,600.938,325.665l2.813-10.599c-234.453-62.248-435.053-170.935-596.225-323.04
							c-576.701-544.251-384.812-1443.157-312.259-1705.69c41.146-148.882,129.861-289.059,263.683-416.633l-7.565-7.937
							c-135.279,128.963-225.005,270.828-266.686,421.647c-59.751,216.211-121.518,547.692-76.456,899.027
							C1559.607,2479.803,1642.781,2699.17,1774.795,2879.297z"/>
					</g>
					<g>
						<path fill="#FFFFFF" d="M1524.253,1776.063l4.593-1.787c3.568-1.387,357.916-142.493,446.039-471.236l-10.592-2.839
							c-81.285,303.242-393.315,444.405-434.863,461.978c-246.627-481.108-75.351-771.443-16.804-849.128
							c1.624-2.156,2.609-3.529,2.911-4.064l-9.514-5.45c-0.304,0.478-1.047,1.447-2.153,2.916
							c-59.703,79.219-234.838,375.741,18.121,865.232L1524.253,1776.063z"/>
					</g>
					<g>
						<path fill="#FFFFFF" d="M1110.096,1921.859c71.217,97.172,197.555,214.186,419.473,301.221l2.728,1.07l2.404-1.676
							c2.377-1.653,239.426-169.187,393.751-493.008l155.482-326.26l-9.9-4.718l-155.482,326.259
							c-144.765,303.768-362.694,468.743-387.757,487.032c-259.826-102.57-386.209-246.319-446.531-349.023
							c-65.357-111.299-69.167-199.134-69.198-200.007l-10.959,0.385c0.131,3.684,3.952,91.501,70.703,205.175
							C1084.718,1885.182,1096.39,1903.159,1110.096,1921.859z"/>
					</g>
				</g>
			</g>
		</g>
		<g>
			<g>
				<g>
					<g opacity="0.5">
						<g>
							<path fill="#FFFFFF" d="M1959.438,2891.935l-1.918-7.045c207.548-56.483,471.604-171.249,550.916-397.224
								c29.165-83.093,30.397-172.1,32.101-295.291c1.361-98.373-6.547-168.217-13.525-229.839
								c-9.133-80.644-16.345-144.34,1.783-234.014c18.394-90.986,57.621-179.379,116.588-262.726l5.961,4.217
								c-58.377,82.512-97.199,169.973-115.391,259.955c-17.901,88.548-10.747,151.741-1.688,231.747
								c7.004,61.838,14.939,131.924,13.573,230.744c-1.65,119.238-2.952,213.406-32.513,297.625
								c-37.81,107.725-121.262,200.676-248.043,276.27C2181.699,2817.383,2078.127,2859.635,1959.438,2891.935z"/>
						</g>
						<g>
							<path fill="#FFFFFF" d="M2545.303,2124.453l-3.604-2.009c-0.622-0.349-62.935-35.567-121.438-108.869
								c-53.996-67.649-115.826-182.559-103.759-345.804l7.282,0.538c-11.893,160.885,49.003,274.083,102.182,340.711
								c49.653,62.21,101.863,96.442,115.739,104.937c70.673-171.045,176.188-272.386,252.54-327.386
								c83.459-60.117,151.248-79.462,151.924-79.65l1.962,7.033c-0.663,0.186-67.446,19.286-149.899,78.746
								c-76.064,54.852-181.42,156.272-251.375,327.933L2545.303,2124.453z"/>
						</g>
						<g>
							<path fill="#FFFFFF" d="M2533.197,2389.969l-1.277-2.326c-0.547-0.997-55.59-100.762-130.338-189.963
								c-74.232-88.588-263.946-135.41-265.855-135.873l1.723-7.096c7.884,1.912,193.967,47.865,269.73,138.278
								c68.832,82.142,121.039,173.158,129.834,188.8c207.781-42.871,469.193-493.838,471.821-498.406l6.331,3.639
								c-0.664,1.152-67.344,116.664-159.122,235.607c-123.569,160.142-231.315,249.922-320.24,266.844L2533.197,2389.969z"/>
						</g>
						<g>
							<path fill="#FFFFFF" d="M2298.972,2745.622l4.227-5.923c60.269-84.471,61.927-179.219,4.931-281.611
								c-42.69-76.692-104.004-128.957-104.619-129.477l4.713-5.578c0.625,0.527,62.955,53.658,106.286,131.504
								c56.313,101.161,55.865,198.967-1.161,283.348c24.926-1.194,111.575-7.066,221.55-33.77
								c120.12-29.168,293.446-89.869,437.013-213.41l279.092-240.167l4.762,5.535l-279.092,240.167
								c-144.722,124.535-319.285,185.665-440.239,215.016c-131.017,31.793-229.209,34.193-230.186,34.213L2298.972,2745.622z"/>
						</g>
					</g>
					<linearGradient id="SVGID_3_" gradientUnits="userSpaceOnUse" x1="2038.9629" y1="2191.833" x2="2973.1807" y2="2191.833">
						<stop  offset="0" style="stop-color:#AA80F9"/>
						<stop  offset="0.9964" style="stop-color:#6165D7"/>
					</linearGradient>
					<path fill="url(#SVGID_3_)" d="M2038.963,2849.154c71.604-55.137,167.916-146.638,220.893-284.148
						c69.477-180.342,3.37-281.369,42.531-594.363c24.761-197.904,44.035-335.767,151.309-400.029
						c84.064-50.359,212.106-49.489,283.874,11.819c59.673,50.977,87.429,149.706,92.098,218.699
						c3.807,56.229-7.521,95.679,21.524,127.941c29.683,32.973,66.518,19.549,94.839,44.59
						c57.435,50.781,7.161,195.482-0.964,218.869c-90.385,260.148-353.448,415.848-469.016,482.382
						C2380.496,2729.926,2234.014,2801.361,2038.963,2849.154z"/>
				</g>
			</g>
			<g>
				<g>
					<g opacity="0.5">
						<g>
							<path fill="#FFFFFF" d="M2284.863,2920.973c-46,14.531-93.124,24.82-141.324,30.834
								c-147.66,18.422-299.386-2.297-450.967-61.584l2.66-6.801c150.436,58.84,300.963,79.41,447.402,61.14
								c523.979-65.368,774.694-623.737,839.051-793.312c36.493-96.166,44.011-206.379,22.339-327.574l7.188-1.285
								c21.907,122.515,14.27,234.031-22.701,331.449c-53,139.654-150.285,342.019-312.768,513.002
								C2557.682,2791.078,2426.668,2876.176,2284.863,2920.973z"/>
						</g>
						<g>
							<path fill="#FFFFFF" d="M2853.648,2426.979l-1.764-2.769c-1.371-2.148-136.172-217.406-54.121-428.674l6.805,2.644
								c-75.686,194.878,36.363,393.512,51.764,419.304c321.828-161.359,344.097-384.725,343.223-449.494
								c-0.023-1.798-0.013-2.923,0.037-3.33l7.256,0.817c-0.026,0.376-0.009,1.189,0.009,2.413
								c0.89,66.051-21.739,294.256-350.27,457.627L2853.648,2426.979z"/>
						</g>
						<g>
							<path fill="#FFFFFF" d="M3018.73,2668.297c-76.498,24.166-190.416,37.295-343.872-3.295l-1.888-0.499l-0.632-1.847
								c-0.626-1.824-62.02-185.111-17.466-419.79l44.891-236.444l7.174,1.361l-44.891,236.445
								c-41.795,220.145,10.336,394.532,16.6,414.221c179.936,47.166,304.397,19.692,377.221-11.734
								c78.912-34.061,115.527-79.742,115.889-80.199l5.735,4.521c-1.521,1.927-38.136,47.595-118.729,82.382
								C3046.797,2658.583,3033.453,2663.646,3018.73,2668.297z"/>
						</g>
					</g>
					<linearGradient id="SVGID_4_" gradientUnits="userSpaceOnUse" x1="3027.1084" y1="1956.915" x2="2696.6814" y2="2843.8523">
						<stop  offset="0.0036" style="stop-color:#E38DDD"/>
						<stop  offset="1" style="stop-color:#9571F6"/>
					</linearGradient>
					<path fill="url(#SVGID_4_)" d="M2305.137,2915.334c141.671,16.994,324.571,18.43,506.541-40.293
						c46.439-14.986,333.318-107.564,315.144-235.512c-6.402-45.07-45.249-56.466-54.861-116.574
						c-11.391-71.224,35.86-100.813,75.642-183.474c23.738-49.323,93.207-193.669,12.584-287.059
						c-48.178-55.807-147.773-90.894-227.662-81.525c-117.179,13.74-168.997,120.427-253.551,302.46
						c-74.955,161.365-65.225,204.156-121.227,319.413C2516.184,2678.309,2443.023,2794.277,2305.137,2915.334z"/>
				</g>
			</g>
		</g>
		<g>
			
				<linearGradient id="SVGID_5_" gradientUnits="userSpaceOnUse" x1="2042.958" y1="3013.916" x2="2149.25" y2="3013.916" gradientTransform="matrix(-0.9989 0.0464 0.0464 0.9989 3122.1235 -58.4634)">
				<stop  offset="0" style="stop-color:#444B8C"/>
				<stop  offset="0.9964" style="stop-color:#26264F"/>
			</linearGradient>
			<path fill="url(#SVGID_5_)" d="M1133.367,2996.114c-18.912,15.284-19.981,26.146-19.37,31.438
				c0.986,8.531,7.417,11.842,22.808,27.947c20.817,21.783,17.633,24.7,28.237,32.579c23.401,17.388,56.494,16.235,58.489,10.323
				c1.401-4.152-13.564-7.536-30.597-27.262c-15.717-18.201-21.037-36.24-22.459-41.532c-2.586-9.623-3.256-17.94-3.384-23.698
				L1133.367,2996.114z"/>
			
				<linearGradient id="SVGID_6_" gradientUnits="userSpaceOnUse" x1="2125.5703" y1="2886.7939" x2="2072.1782" y2="2984.4622" gradientTransform="matrix(-0.9989 0.0464 0.0464 0.9989 3122.1235 -58.4634)">
				<stop  offset="0" style="stop-color:#FFC444"/>
				<stop  offset="0.9964" style="stop-color:#F36F56"/>
			</linearGradient>
			<path fill="url(#SVGID_6_)" d="M1196.704,2949.536l-37.241,64.894c-8.967,3.969-17.543,1.965-25.497-9.604l14.53-78.89
				L1196.704,2949.536z"/>
			
				<linearGradient id="SVGID_7_" gradientUnits="userSpaceOnUse" x1="1926.3799" y1="3000.5098" x2="2114.3501" y2="2180.6372" gradientTransform="matrix(-0.9989 0.0464 0.0464 0.9989 3122.1235 -58.4634)">
				<stop  offset="0" style="stop-color:#AA80F9"/>
				<stop  offset="0.9964" style="stop-color:#6165D7"/>
			</linearGradient>
			<path fill="url(#SVGID_7_)" d="M1241.844,2117.236c36.281,61.242,95.128,179.443,107.035,339.277
				c11.751,157.759-28.043,277.99-44.713,322.829c-31.234,84.014-85.552,172.23-117.105,214.278
				c-21.281-8.9-33.809-22.858-55.089-31.758c3.197-11.58,13.063-49.819,19.274-72.596c4.813-17.646,13.687-50.297,15.511-57.274
				c15.28-58.429,3.217-102.273,7.421-174.536c4.905-84.277,24.214-74.483,21.309-125.078
				c-4.336-75.549-47.146-93.188-96.292-202.547c-33.641-74.852-68.973-153.471-36.499-196.455
				C1103.57,2079.274,1227.959,2113.29,1241.844,2117.236z"/>
			
				<linearGradient id="SVGID_8_" gradientUnits="userSpaceOnUse" x1="2168.1563" y1="3089.9141" x2="2314.4229" y2="3089.9141" gradientTransform="matrix(-1 0 0 1 3278.9658 0)">
				<stop  offset="0" style="stop-color:#444B8C"/>
				<stop  offset="0.9964" style="stop-color:#26264F"/>
			</linearGradient>
			<path fill="url(#SVGID_8_)" d="M979.316,3055.465c-11.344,7.215-18.19,24.363-13.022,35.159
				c5.081,10.614,18.03,7.26,49.484,16.927c33.691,10.354,40.356,20.816,65.191,20.793c10.034-0.012,28.225-1.736,29.745-8.485
				c1.068-4.741-6.655-9.464-32.081-26.548c-36.095-24.248-35.721-24.928-43.778-28.648
				C1014.618,3055.32,994.293,3045.938,979.316,3055.465z"/>
			
				<linearGradient id="SVGID_9_" gradientUnits="userSpaceOnUse" x1="2247.7568" y1="3082.4863" x2="2304.124" y2="2965.8193" gradientTransform="matrix(-1 0 0 1 3278.9658 0)">
				<stop  offset="0" style="stop-color:#FFC444"/>
				<stop  offset="0.9964" style="stop-color:#F36F56"/>
			</linearGradient>
			<path fill="url(#SVGID_9_)" d="M1033.204,3004.07l-13.829,63.164c-1.932,2.826-21.622,9.583-35.416,0l5.084-63.164H1033.204z"/>
			
				<linearGradient id="SVGID_10_" gradientUnits="userSpaceOnUse" x1="1928.9834" y1="3001.1064" x2="2116.9536" y2="2181.2339" gradientTransform="matrix(-0.9989 0.0464 0.0464 0.9989 3122.1235 -58.4634)">
				<stop  offset="0" style="stop-color:#AA80F9"/>
				<stop  offset="0.9964" style="stop-color:#6165D7"/>
			</linearGradient>
			<path opacity="0.3" fill="url(#SVGID_10_)" d="M1062.696,2133.377c40.874-54.103,165.263-20.087,179.148-16.141
				c14.908,25.162,33.609,60.091,51.314,103.422c-44.085-8.669-63.219-0.799-72.135,9.656
				c-34.609,40.581,73.75,130.186,51.468,266.15c-8.715,53.178-31.459,77.111-27.297,142.058
				c3.096,48.333,18.109,72.797,28.488,108.181c6.228,21.231,11.051,47.338,11.28,78.889
				c-31.166,68.512-72.125,133.678-97.902,168.029c-21.281-8.9-33.809-22.857-55.089-31.757
				c3.197-11.579,13.063-49.82,19.274-72.597c4.813-17.646,13.687-50.297,15.511-57.274c15.28-58.429,3.217-102.273,7.421-174.536
				c4.905-84.277,24.214-74.483,21.309-125.078c-4.336-75.549-47.146-93.188-96.292-202.547
				C1065.555,2254.98,1030.223,2176.361,1062.696,2133.377z"/>
			
				<linearGradient id="SVGID_11_" gradientUnits="userSpaceOnUse" x1="2161.4971" y1="2674.1045" x2="2493.5596" y2="2150.6177" gradientTransform="matrix(-1 0 0 1 3278.9658 0)">
				<stop  offset="0" style="stop-color:#AA80F9"/>
				<stop  offset="0.9964" style="stop-color:#6165D7"/>
			</linearGradient>
			<path fill="url(#SVGID_11_)" d="M1144.697,2150.43c3.509,140.932-1.806,304.236-24.997,484.238
				c-18.879,146.54-46.333,278.754-76.576,394.751c-4.182,2.362-18.852,9.961-37.642,6.402
				c-13.304-2.519-22.206-9.408-26.167-12.911c3.3-23.695,6.645-59.549,3.907-102.877c-4.707-74.477-22.243-89.649-29.769-166.725
				c-6.6-67.588,0.354-122.803,3.725-148.406c10.376-78.804,24.461-80.425,24.742-127.617
				c0.431-72.673-32.796-98.695-51.063-167.936c-12.185-46.188-18.646-115.146,11.997-209.706
				C1010.135,2116.571,1077.416,2133.502,1144.697,2150.43z"/>
			
				<linearGradient id="SVGID_12_" gradientUnits="userSpaceOnUse" x1="1912.0518" y1="1529.2661" x2="2019.9398" y2="1911.9309" gradientTransform="matrix(-1 0 0 1 3278.9658 0)">
				<stop  offset="0" style="stop-color:#311944"/>
				<stop  offset="1" style="stop-color:#893976"/>
			</linearGradient>
			<path fill="url(#SVGID_12_)" d="M1216.602,1588.112c24.708,13.875,59.028,36.862,91.017,73.495
				c73.778,84.487,119.404,223.512,71.986,269c-32.261,30.946-108.776,21.571-135.131-15.155
				c-19.385-27.013-5.431-60.191,1.264-107.347C1252.939,1757.362,1252.68,1683.774,1216.602,1588.112z"/>
			
				<linearGradient id="SVGID_13_" gradientUnits="userSpaceOnUse" x1="2098.3828" y1="1477.5259" x2="2310.292" y2="2229.1401" gradientTransform="matrix(-1 0 0 1 3278.9658 0)">
				<stop  offset="0" style="stop-color:#311944"/>
				<stop  offset="1" style="stop-color:#893976"/>
			</linearGradient>
			<path fill="url(#SVGID_13_)" d="M930.107,2133.635c27.317-360.09,114.417-507.497,106.805-551.254
				c10.961-7.881,54.271-20.409,152.386-7.494c8.384,3.08,30.766,12.112,52.948,32.39c0,0,5.156,4.702,12.209,12.962
				c-68.927,13.016-139.139,52.265-164.414,107.868c-43.781,106.326,37.527,225.162,0,318.98
				c-19.721,49.302-51.271,93.001-88.934,133.855C958.044,2170.203,928.533,2154.389,930.107,2133.635z"/>
			
				<linearGradient id="SVGID_14_" gradientUnits="userSpaceOnUse" x1="2204.2715" y1="2701.2383" x2="2536.3342" y2="2177.751" gradientTransform="matrix(-1 0 0 1 3278.9658 0)">
				<stop  offset="0" style="stop-color:#AA80F9"/>
				<stop  offset="0.9964" style="stop-color:#6165D7"/>
			</linearGradient>
			<path opacity="0.3" fill="url(#SVGID_14_)" d="M942.854,2099.644c19.695,4.956,39.391,9.912,59.086,14.868
				c-10.3,35.487-20.193,88.746-8.3,149.21c16.423,83.493,58.869,101.813,65.111,177.103c5.616,67.732-26.361,81.547-41.671,171.891
				c-15.689,92.584,8.056,136.126,13.022,213.561c3.399,52.994-2.117,122.326-34.361,206.703
				c-7.966-3.15-13.529-7.508-16.424-10.068c3.3-23.695,6.645-59.549,3.907-102.877c-4.707-74.477-22.243-89.649-29.769-166.725
				c-6.6-67.588,0.354-122.803,3.725-148.406c10.376-78.804,24.461-80.425,24.742-127.617
				c0.431-72.673-32.796-98.695-51.063-167.936C918.673,2263.161,912.212,2194.204,942.854,2099.644z"/>
			
				<linearGradient id="SVGID_15_" gradientUnits="userSpaceOnUse" x1="1976.5527" y1="1407.9507" x2="2188.4675" y2="2159.5845" gradientTransform="matrix(-1 0 0 1 3278.9658 0)">
				<stop  offset="0" style="stop-color:#311944"/>
				<stop  offset="1" style="stop-color:#893976"/>
			</linearGradient>
			<path fill="url(#SVGID_15_)" d="M1242.247,1607.277c0,0,26.105,23.755,41.328,58.655c22.933,52.578-1.765,97.714-9.173,183.576
				c-8.126,94.188,3.369,251.093,29.868,307.305c0.461,0.979,1.61,3.773,1.141,7.317c-7.163,54.328-380.805,42.017-375.303-30.496
				c27.317-360.09,114.417-507.497,106.805-551.253c10.961-7.882,54.271-20.41,152.386-7.495
				C1197.682,1577.967,1220.064,1587,1242.247,1607.277z"/>
			<g>
				
					<linearGradient id="SVGID_16_" gradientUnits="userSpaceOnUse" x1="387.6221" y1="1807.2852" x2="394.389" y2="1627.037" gradientTransform="matrix(0.917 0.3988 -0.3988 0.917 1471.5615 -184.894)">
					<stop  offset="0" style="stop-color:#FFC444"/>
					<stop  offset="0.9964" style="stop-color:#F36F56"/>
				</linearGradient>
				<path fill="url(#SVGID_16_)" d="M1131.183,1484.463c0,0-24.129,75.737-31.943,84.85c-7.814,9.114,31.364,32.936,61.396,22.195
					c27.58-9.862-0.022-51.897-0.022-51.897L1131.183,1484.463z"/>
				<g>
					
						<linearGradient id="SVGID_17_" gradientUnits="userSpaceOnUse" x1="2039.3633" y1="1415.4951" x2="2126.4832" y2="1526.1611" gradientTransform="matrix(-1 0 0 1 3278.9658 0)">
						<stop  offset="0" style="stop-color:#444B8C"/>
						<stop  offset="0.9964" style="stop-color:#26264F"/>
					</linearGradient>
					<path fill="url(#SVGID_17_)" d="M1226.44,1525.67c16.265-6.894,29.175-27.893,26.379-47.507
						c-2.405-16.876-15.799-26.835-23.815-32.799c-23.231-17.283-60.659-25.067-84.845-8.476
						c-14.331,9.833-16.653,46.151-17.394,52.491c-0.836,7.173,2.528,11.746,4.183,18.492c2.293,9.355,5.797,24.147,11.292,48.674
						c3.879-4.055,9-8.888,15.434-13.619c2.475-1.82,12.266-8.863,23.308-13.01
						C1203.114,1521.603,1211.021,1532.206,1226.44,1525.67z"/>
					
						<linearGradient id="SVGID_18_" gradientUnits="userSpaceOnUse" x1="522.7554" y1="1649.8193" x2="518.8384" y2="1965.4106" gradientTransform="matrix(0.8962 0.4436 -0.4436 0.8962 1445.248 -209.8398)">
						<stop  offset="0" style="stop-color:#FFC444"/>
						<stop  offset="0.9964" style="stop-color:#F36F56"/>
					</linearGradient>
					<path fill="url(#SVGID_18_)" d="M1128.982,1530.922c0,0,0.83,36.32,34.643,53.056c30.274,14.983,72.407-47.969,61.807-72.637
						c-3.537-8.229-14.875-17.356-26.641-20.378c-6.949-1.786-10.412-0.472-21.71-3.608c-10.421-2.893-12.399-5.378-16.466-4.66
						c-5.089,0.9-11.679,6.509-17.034,28.941c-2.305-8.856-7.734-14.887-13.761-15.391c-0.962-0.08-3.754,0.125-6.077,1.537
						C1115.339,1502.894,1116.641,1516.387,1128.982,1530.922z"/>
					
						<linearGradient id="SVGID_19_" gradientUnits="userSpaceOnUse" x1="2027.7031" y1="1424.6738" x2="2114.8232" y2="1535.3401" gradientTransform="matrix(-1 0 0 1 3278.9658 0)">
						<stop  offset="0" style="stop-color:#444B8C"/>
						<stop  offset="0.9964" style="stop-color:#26264F"/>
					</linearGradient>
					<path fill="url(#SVGID_19_)" d="M1161.559,1478.015c0.8,1.864-6.539,4.627-11.159,11.869
						c-8.968,14.062-4.388,39.819,9.654,49.906c8.303,5.962,13.793,2.055,29.237,8.939c9.562,4.263,16.4,9.749,20.524,13.512
						c-4.579,18.462-18.01,31.744-32.814,32.941c-15.943,1.29-27.716-11.9-32.639-17.417c-3.293-3.691-13.86-15.487-13.755-31.379
						c0.111-16.559,11.416-20.035,8.15-33.168c-1.647-6.625-5.977-11.586-6.469-22.85c-0.133-3.06,0.06-5.587,0.247-7.253
						C1144.677,1479.497,1160.401,1475.318,1161.559,1478.015z"/>
					
						<linearGradient id="SVGID_20_" gradientUnits="userSpaceOnUse" x1="850.356" y1="1701.1924" x2="854.7895" y2="1740.717" gradientTransform="matrix(-0.8674 -0.4976 -0.4976 0.8674 2778.2642 496.6377)">
						<stop  offset="0" style="stop-color:#FFC444"/>
						<stop  offset="1" style="stop-color:#F36F56"/>
					</linearGradient>
					<path fill="url(#SVGID_20_)" d="M1195.829,1561.976c0,0-8.207-0.356-18.74-7.268c-0.513-0.337-1.186-0.519-1.412-0.284
						c-0.849,0.887,3.457,9.561,10.94,11.476c5.313,1.359,11.373-0.909,11.395-2.365
						C1198.021,1562.921,1196.95,1562.383,1195.829,1561.976z"/>
				</g>
			</g>
			
				<linearGradient id="SVGID_21_" gradientUnits="userSpaceOnUse" x1="1999.4336" y1="1401.5034" x2="2211.3474" y2="2153.134" gradientTransform="matrix(-1 0 0 1 3278.9658 0)">
				<stop  offset="0" style="stop-color:#311944"/>
				<stop  offset="1" style="stop-color:#893976"/>
			</linearGradient>
			<path opacity="0.3" fill="url(#SVGID_21_)" d="M1035.462,1815.682c40.774,14.315,94.879,54.541,98.507,106.084
				c5.574,79.164-112.319,122.601-96.613,178.07c4.284,15.123,17.825,28.764,106.085,60.619
				c35.713,12.891,68.892,23.402,99.013,32.1c-107.999,15.918-316.466-4.621-312.347-58.922
				c10.458-137.846,29.676-244.433,48.988-326.062C998.663,1806.803,1017.686,1809.439,1035.462,1815.682z"/>
			
				<linearGradient id="SVGID_22_" gradientUnits="userSpaceOnUse" x1="2950.3223" y1="1000.3286" x2="3105.6274" y2="1551.1754" gradientTransform="matrix(-0.9424 0.3345 0.3345 0.9424 3410.1035 -484.9014)">
				<stop  offset="0" style="stop-color:#311944"/>
				<stop  offset="1" style="stop-color:#893976"/>
			</linearGradient>
			<path fill="url(#SVGID_22_)" d="M1163.834,1977.656c-66.323,67.332-161.01,88.541-233.808,54.856
				c-101.098-46.779-116.732-179.416-93.16-262.426c39.354-138.583,210.861-219.399,264.891-182.481
				c39.074,26.697,38.702,129.994-7.865,181.699c-41.858,46.476-106.15,34.735-123.635,82.083
				c-13.098,35.465,12.21,71.197,14.384,74.173c28.149,38.536,89.497,51.611,147.516,25.147
				C1142.716,1959.689,1153.275,1968.672,1163.834,1977.656z"/>
			
				<linearGradient id="SVGID_23_" gradientUnits="userSpaceOnUse" x1="2023.085" y1="1931.4229" x2="2027.8766" y2="1803.7904" gradientTransform="matrix(-1 0 0 1 3278.9658 0)">
				<stop  offset="0" style="stop-color:#FFC444"/>
				<stop  offset="0.9964" style="stop-color:#F36F56"/>
			</linearGradient>
			<path fill="url(#SVGID_23_)" d="M1295.151,1861.613c-5.4-17.349-22.947-26.238-36.751-28.161
				c-13.512-1.883-35.777,1.188-44.642,18.853c-8.291,16.519-1.771,39.633,17.288,52.166c2.682-6.655,7.489-15.411,15.954-18.066
				c15.57-4.885,29.064,15.403,40.568,10.104C1296.739,1892.282,1299.115,1874.346,1295.151,1861.613z"/>
			<path fill="#FFFFFF" d="M1231.464,1966.777l-51.039,8.873c-9.888,1.719-18.376-7.113-16.265-16.925l18.568-86.342
				c1.344-6.247,6.704-10.819,13.084-11.16l61.107-3.27c10.084-0.539,17.475,9.351,14.099,18.869l-28.636,80.739
				C1240.673,1962.38,1236.5,1965.902,1231.464,1966.777z"/>
			
				<linearGradient id="SVGID_24_" gradientUnits="userSpaceOnUse" x1="2087.3965" y1="2000.3477" x2="2091.4646" y2="1891.9878" gradientTransform="matrix(-1 0 0 1 3278.9658 0)">
				<stop  offset="0" style="stop-color:#FFC444"/>
				<stop  offset="0.9964" style="stop-color:#F36F56"/>
			</linearGradient>
			<path fill="url(#SVGID_24_)" d="M1142.385,1959.408c4.189-30.063,16.862-37.934,21.449-40.168
				c7.69-3.748,11.482-0.838,38.332-1.264c23.986-0.38,29.669-2.84,32.704,1.264c5.745,7.771-6.063,28.195-19.443,40.168
				c-18.759,16.786-42.02,18.226-51.593,18.248L1142.385,1959.408z"/>
		</g>
		<g>
			<g>
				<g>
					
						<linearGradient id="SVGID_25_" gradientUnits="userSpaceOnUse" x1="1365.4014" y1="1887.5762" x2="964.7238" y2="1931.2861" gradientTransform="matrix(-1 0 0 1 3475.8818 0)">
						<stop  offset="0" style="stop-color:#444B8C"/>
						<stop  offset="0.9964" style="stop-color:#26264F"/>
					</linearGradient>
					<path fill="url(#SVGID_25_)" d="M1632.051,878.085l-244.099,2028.907c-3.659,30.421,17.308,57.691,46.678,60.605
						l1016.706,111.619c62.283,3.875,96.384-27.945,100.227-60.294L2807.84,861.855c3.822-32.168-26.734-61.3-89.282-61.3
						l-1025.956,21.608C1662.901,822.661,1635.693,847.824,1632.051,878.085z"/>
					
						<linearGradient id="SVGID_26_" gradientUnits="userSpaceOnUse" x1="1718.436" y1="877.5889" x2="727.6774" y2="4250.5469" gradientTransform="matrix(-1 0 0 1 3475.8818 0)">
						<stop  offset="0" style="stop-color:#444B8C"/>
						<stop  offset="0.9964" style="stop-color:#26264F"/>
					</linearGradient>
					<path fill="url(#SVGID_26_)" d="M1586.293,874.593l-245.44,2039.057c-3.68,30.573,17.358,57.984,46.837,60.919l1054.038,104.94
						c33.047,3.291,63.33-20.615,67.195-53.13L2766.64,858.165c3.843-32.333-20.429-58.323-53.837-57.76l-1065.722,17.981
						C1617.27,818.889,1589.954,844.181,1586.293,874.593z"/>
					<linearGradient id="SVGID_27_" gradientUnits="userSpaceOnUse" x1="1378.4131" y1="1977.6455" x2="2714.96" y2="1977.6455">
						<stop  offset="0.0036" style="stop-color:#E38DDD"/>
						<stop  offset="1" style="stop-color:#9571F6"/>
					</linearGradient>
					<path fill="url(#SVGID_27_)" d="M1606.293,987.066l-227.491,1890.609c-3.437,28.563,16.265,54.126,43.859,56.808
						l991.288,96.361c30.72,2.985,58.871-19.328,62.471-49.594l238.166-2002.928c3.582-30.108-18.953-54.47-49.984-54.139
						l-1001.46,10.665C1635.261,935.145,1609.714,958.641,1606.293,987.066z"/>
					
						<linearGradient id="SVGID_28_" gradientUnits="userSpaceOnUse" x1="1347.1743" y1="794.5098" x2="182.7661" y2="3948.115" gradientTransform="matrix(-1 0 0 1 3475.8818 0)">
						<stop  offset="0" style="stop-color:#FFC444"/>
						<stop  offset="0.9964" style="stop-color:#F36F56"/>
					</linearGradient>
					<path fill="url(#SVGID_28_)" d="M2137.874,873.192c-1.299,10.855,6.491,19.543,17.411,19.406
						c10.932-0.137,20.857-9.067,22.159-19.943c1.302-10.876-6.519-19.564-17.452-19.404
						C2149.07,853.41,2139.173,862.338,2137.874,873.192z"/>
					<g opacity="0.2">
						<path fill="#FFFFFF" d="M1777.678,2256.162c202.939-375.205,506.098-487.513,597.371-874.203
							c49.338-209.021,15.724-409.082-40.893-575.165l378.647-6.39c33.407-0.563,57.679,25.427,53.835,57.76L2508.924,3026.38
							c-3.863,32.515-34.148,56.421-67.195,53.13l-828.578-82.494C1607.024,2660.818,1687.216,2423.412,1777.678,2256.162z"/>
					</g>
				</g>
			</g>
			<g>
				<defs>
					<path id="SVGID_29_" d="M2482.943,2985.689c-3.223,28.984-22.588,54.444-48.123,52.328l-1013.686-84.012
						c-23.203-1.922-42.045-29.209-38.794-56.744l225.851-1912.711c3.172-26.873,27.175-45.629,50.344-45.912l1011.563-12.309
						c25.467-0.31,39.646,18.931,36.506,47.184L2482.943,2985.689z"/>
				</defs>
				<clipPath id="SVGID_30_">
					<use xlink:href="#SVGID_29_"  overflow="visible"/>
				</clipPath>
				<g clip-path="url(#SVGID_30_)">
					<g>
						<path fill="#FFFFFF" d="M2343.907,3150.139c-0.002-0.004-0.003-0.006-0.005-0.01l0,0
							c-1.062-2.433-86.078-194.362-388.172-607.715c-123.04-168.355-66.308-479.521-6.367-808.278
							c61.072-334.962,124.086-680.573-10.743-858.328c-62.138-81.921-160.746-121.732-300.443-122.171l4.562-32.807
							c148.651,0.237,254.319,43.286,321.905,132.15c143.232,188.333,78.828,541.767,16.406,884.333
							c-58.606,321.62-114.073,626.014,0.928,782.963c306.113,417.77,389.528,606.452,392.946,614.321L2343.907,3150.139z"/>
					</g>
					<g>
						<polygon fill="#FFFFFF" points="2443.263,1492.029 1421.339,1478.545 1425.25,1445.648 2427.057,1457.308 2798.932,864.726 
							2827.42,880.501 						"/>
					</g>
					<g>
						<polygon fill="#FFFFFF" points="1607.05,3262.988 1575.544,3259.944 1626.877,2819.73 2188.467,2862.297 2260.078,2228.994 
							1337.252,2185.822 1341.198,2152.633 2297.145,2195.842 2217.689,2899.809 1654.405,2856.207 						"/>
					</g>
					<g>
						<polygon fill="#FFFFFF" points="2816.504,1938.201 2367.926,1923.512 2418.498,1474.452 2451.838,1474.866 2405.184,1889.92 
							2820.385,1902.862 						"/>
					</g>
				</g>
				<path clip-path="url(#SVGID_30_)" fill="#FFFFFF" d="M2064.477,1472.036c-3.709,32.299-31.587,58.114-62.187,57.649
					c-30.515-0.463-52.177-26.898-48.464-59.033c3.712-32.122,31.391-57.91,61.9-57.61
					C2046.323,1413.343,2068.185,1439.75,2064.477,1472.036z"/>
				<path clip-path="url(#SVGID_30_)" fill="#FFFFFF" d="M2443.559,1907.096c-3.715,33.111-32.592,59.068-64.417,57.967
					c-31.733-1.098-54.376-28.698-50.659-61.637c3.717-32.926,32.384-58.858,64.113-57.932
					C2424.415,1846.423,2447.27,1873.998,2443.559,1907.096z"/>
				<path clip-path="url(#SVGID_30_)" fill="#FFFFFF" d="M1955.404,2196.133c-3.744,32.557-31.608,57.75-62.158,56.264
					c-30.463-1.482-52.056-28.947-48.308-61.336c3.746-32.376,31.412-57.549,61.871-56.232
					C1937.354,2136.147,1959.146,2163.592,1955.404,2196.133z"/>
				<path clip-path="url(#SVGID_30_)" fill="#FFFFFF" d="M2251.746,2865.621c-3.763,33.386-32.514,58.442-64.133,55.961
					c-31.53-2.477-53.969-31.409-50.203-64.619c3.764-33.196,32.305-58.237,63.83-55.937
					C2232.855,2803.333,2255.506,2832.25,2251.746,2865.621z"/>
			</g>
			<g>
				
					<linearGradient id="SVGID_31_" gradientUnits="userSpaceOnUse" x1="1578.1489" y1="1328.5825" x2="1770.019" y2="1328.5825" gradientTransform="matrix(-1 0 0 1 3694.8398 0)">
					<stop  offset="0" style="stop-color:#AB316D"/>
					<stop  offset="1" style="stop-color:#792D3D"/>
				</linearGradient>
				<path fill="url(#SVGID_31_)" d="M1947.402,1209.418c27.117-28.358,70.253-24.309,84.25-22.997
					c16.53,1.554,48.685,4.567,68.56,29.567c33.51,42.143,7.02,115.004-2.02,139.871c-22.237,61.164-63.453,97.37-87.313,114.803
					c-3.443,0.395-10.797,2.569-14.201-0.786c-19.035-18.762-39.994-58.181-55.275-103.899
					C1935.168,1347.324,1904.18,1254.614,1947.402,1209.418z"/>
				<g>
					
						<linearGradient id="SVGID_32_" gradientUnits="userSpaceOnUse" x1="2103.2646" y1="502.6025" x2="1323.4031" y2="1984.8257" gradientTransform="matrix(-1 0 0 1 3694.8398 0)">
						<stop  offset="0" style="stop-color:#FFC444"/>
						<stop  offset="0.9964" style="stop-color:#F36F56"/>
					</linearGradient>
					<path fill="url(#SVGID_32_)" d="M1997.559,1470.664c23.86-17.434,65.076-53.642,87.312-114.803
						c9.04-24.868,35.53-97.729,2.021-139.872c-19.876-25-52.029-28.015-68.56-29.568c-13.998-1.314-57.133-5.361-84.25,22.996
						c-43.223,45.197-12.234,137.907-6,156.561C1946.095,1419.871,1978.565,1453.78,1997.559,1470.664z"/>
					<path fill="#F4F7FA" d="M1958.104,1290.659c0,30.64,22.891,55.261,51.178,54.993c28.342-0.269,51.358-25.412,51.358-56.159
						c0-30.747-23.017-55.367-51.358-54.99C1980.994,1234.877,1958.104,1260.02,1958.104,1290.659z"/>
				</g>
			</g>
			<g>
				
					<linearGradient id="SVGID_33_" gradientUnits="userSpaceOnUse" x1="1191.3784" y1="1777.3633" x2="1383.249" y2="1777.3633" gradientTransform="matrix(-1 0 0 1 3694.8398 0)">
					<stop  offset="0" style="stop-color:#AB316D"/>
					<stop  offset="1" style="stop-color:#792D3D"/>
				</linearGradient>
				<path fill="url(#SVGID_33_)" d="M2334.174,1658.198c27.116-28.358,70.252-24.309,84.25-22.997
					c16.529,1.554,48.684,4.567,68.559,29.567c33.51,42.143,7.02,115.004-2.02,139.871c-22.238,61.163-63.453,97.37-87.313,114.803
					c-3.444,0.395-10.798,2.568-14.2-0.786c-19.035-18.761-39.996-58.181-55.275-103.899
					C2321.938,1796.104,2290.949,1703.395,2334.174,1658.198z"/>
				<g>
					
						<linearGradient id="SVGID_34_" gradientUnits="userSpaceOnUse" x1="1716.4966" y1="951.3813" x2="936.6328" y2="2433.6084" gradientTransform="matrix(-1 0 0 1 3694.8398 0)">
						<stop  offset="0" style="stop-color:#FFC444"/>
						<stop  offset="0.9964" style="stop-color:#F36F56"/>
					</linearGradient>
					<path fill="url(#SVGID_34_)" d="M2384.328,1919.444c23.861-17.435,65.076-53.642,87.313-114.803
						c9.039-24.868,35.529-97.729,2.021-139.871c-19.876-25-52.029-28.015-68.561-29.568c-13.996-1.314-57.133-5.362-84.25,22.995
						c-43.223,45.197-12.234,137.907-5.999,156.562C2332.865,1868.651,2365.336,1902.561,2384.328,1919.444z"/>
					<path fill="#F4F7FA" d="M2344.873,1739.439c0,30.639,22.892,55.26,51.18,54.993c28.342-0.269,51.357-25.412,51.357-56.159
						c0-30.747-23.016-55.367-51.357-54.991C2367.765,1683.658,2344.873,1708.8,2344.873,1739.439z"/>
				</g>
			</g>
			<g>
				
					<linearGradient id="SVGID_35_" gradientUnits="userSpaceOnUse" x1="1680.7446" y1="2095.041" x2="1872.6152" y2="2095.041" gradientTransform="matrix(-1 0 0 1 3694.8398 0)">
					<stop  offset="0" style="stop-color:#AB316D"/>
					<stop  offset="1" style="stop-color:#792D3D"/>
				</linearGradient>
				<path fill="url(#SVGID_35_)" d="M1844.808,1975.877c27.116-28.359,70.253-24.31,84.249-22.996
					c16.531,1.553,48.686,4.566,68.56,29.566c33.51,42.143,7.02,115.004-2.02,139.871c-22.237,61.164-63.452,97.369-87.313,114.803
					c-3.444,0.395-10.798,2.569-14.2-0.785c-19.035-18.762-39.996-58.182-55.277-103.899
					C1832.573,2113.783,1801.584,2021.072,1844.808,1975.877z"/>
				<g>
					
						<linearGradient id="SVGID_36_" gradientUnits="userSpaceOnUse" x1="2205.8594" y1="1269.0615" x2="1425.9978" y2="2751.2847" gradientTransform="matrix(-1 0 0 1 3694.8398 0)">
						<stop  offset="0" style="stop-color:#FFC444"/>
						<stop  offset="0.9964" style="stop-color:#F36F56"/>
					</linearGradient>
					<path fill="url(#SVGID_36_)" d="M1894.963,2237.123c23.86-17.435,65.076-53.642,87.313-114.804
						c9.039-24.868,35.529-97.729,2.021-139.871c-19.877-24.999-52.03-28.015-68.561-29.567
						c-13.997-1.314-57.133-5.361-84.25,22.994c-43.222,45.197-12.234,137.908-6,156.563
						C1843.499,2186.329,1875.971,2220.238,1894.963,2237.123z"/>
					<path fill="#F4F7FA" d="M1855.508,2057.117c0,30.641,22.891,55.262,51.178,54.993c28.342-0.269,51.359-25.412,51.359-56.159
						s-23.018-55.367-51.359-54.99C1878.398,2001.336,1855.508,2026.479,1855.508,2057.117z"/>
				</g>
			</g>
			<g>
				
					<linearGradient id="SVGID_37_" gradientUnits="userSpaceOnUse" x1="1402.314" y1="2723.2178" x2="1594.1841" y2="2723.2178" gradientTransform="matrix(-1 0 0 1 3694.8398 0)">
					<stop  offset="0" style="stop-color:#AB316D"/>
					<stop  offset="1" style="stop-color:#792D3D"/>
				</linearGradient>
				<path fill="url(#SVGID_37_)" d="M2123.238,2604.053c27.117-28.358,70.252-24.31,84.25-22.996
					c16.529,1.553,48.685,4.566,68.559,29.566c33.51,42.143,7.02,115.004-2.02,139.871c-22.237,61.164-63.453,97.369-87.313,114.803
					c-3.445,0.396-10.798,2.569-14.201-0.785c-19.035-18.762-39.996-58.182-55.275-103.899
					C2111.003,2741.959,2080.015,2649.248,2123.238,2604.053z"/>
				<g>
					
						<linearGradient id="SVGID_38_" gradientUnits="userSpaceOnUse" x1="1927.4316" y1="1897.2344" x2="1147.5664" y2="3379.4644" gradientTransform="matrix(-1 0 0 1 3694.8398 0)">
						<stop  offset="0" style="stop-color:#FFC444"/>
						<stop  offset="0.9964" style="stop-color:#F36F56"/>
					</linearGradient>
					<path fill="url(#SVGID_38_)" d="M2173.394,2865.299c23.86-17.435,65.075-53.643,87.313-114.804
						c9.04-24.868,35.53-97.729,2.021-139.87c-19.877-25-52.03-28.016-68.561-29.568c-13.997-1.314-57.134-5.361-84.251,22.994
						c-43.222,45.197-12.233,137.908-6,156.563C2121.93,2814.506,2154.401,2848.414,2173.394,2865.299z"/>
					<path fill="#F4F7FA" d="M2133.938,2685.293c0,30.641,22.892,55.262,51.179,54.993c28.342-0.269,51.357-25.412,51.357-56.159
						c0-30.746-23.016-55.367-51.357-54.99C2156.83,2629.512,2133.938,2654.654,2133.938,2685.293z"/>
				</g>
			</g>
		</g>
		<g>
			<g>
				<g>
					
						<linearGradient id="SVGID_39_" gradientUnits="userSpaceOnUse" x1="2825.9912" y1="2771.7617" x2="3102.1533" y2="2771.7617" gradientTransform="matrix(1 0 0 1 -503.313 0)">
						<stop  offset="0.494" style="stop-color:#EBEFF2"/>
						<stop  offset="1" style="stop-color:#FFFFFF"/>
					</linearGradient>
					<rect x="2322.678" y="2431.434" fill="url(#SVGID_39_)" width="276.162" height="680.656"/>
					<rect x="2343.627" y="2496.062" fill="#97A6B7" width="234.263" height="42.627"/>
					<rect x="2343.627" y="2571.689" fill="#97A6B7" width="234.263" height="42.627"/>
					<rect x="2343.627" y="2647.318" fill="#97A6B7" width="234.263" height="42.627"/>
					<rect x="2343.627" y="2722.947" fill="#97A6B7" width="234.263" height="42.627"/>
					<rect x="2343.627" y="2798.575" fill="#97A6B7" width="234.263" height="42.627"/>
					<rect x="2343.627" y="2874.204" fill="#97A6B7" width="234.263" height="42.627"/>
					<rect x="2343.627" y="2949.832" fill="#97A6B7" width="234.263" height="42.627"/>
					<polygon fill="#97A6B7" points="2322.678,2431.434 2322.678,3112.09 2248.398,3112.09 2248.398,2496.062 2320.525,2433.303 
						2322.373,2431.694 					"/>
					<rect x="2225.544" y="2958.083" opacity="0.5" fill="#97A6B7" width="45.71" height="9.626"/>
					<rect x="2343.627" y="2496.062" opacity="0.5" fill="#97A6B7" width="234.263" height="8.25"/>
					<rect x="2343.627" y="2571.689" opacity="0.5" fill="#97A6B7" width="234.263" height="8.25"/>
					<rect x="2343.627" y="2647.318" opacity="0.5" fill="#97A6B7" width="234.263" height="8.25"/>
					<rect x="2343.627" y="2722.947" opacity="0.5" fill="#97A6B7" width="234.263" height="8.25"/>
					<rect x="2343.627" y="2798.575" opacity="0.5" fill="#97A6B7" width="234.263" height="8.251"/>
					<rect x="2343.627" y="2874.204" opacity="0.5" fill="#97A6B7" width="234.263" height="8.25"/>
					<rect x="2343.627" y="2949.832" opacity="0.5" fill="#97A6B7" width="234.263" height="8.251"/>
					<path opacity="0.1" fill="#97A6B7" d="M2589.669,3112.09h-266.991l-74.279-20.625v-131.855
						c2.924-8.223,6.057-16.033,9.409-23.225c31.302-67.214,21.112-94.536,27.664-143.723
						c6.466-48.553-7.638-309.004,35.054-359.359c0.562-0.66,1.123-1.278,1.704-1.869c0.048,0.082,0.096,0.179,0.144,0.261
						c0.104,0.192,0.209,0.371,0.305,0.55c16.846,30.582,26.358,48.224,31.815,63.817c0.981,2.791,1.828,5.527,2.552,8.25
						c2.8,10.354,3.99,20.667,4.609,34.377c0.4,9.144,0.562,19.801,0.762,33.001c0.038,2.641,0.086,5.391,0.133,8.25
						c0.029,1.65,0.058,3.342,0.086,5.061c0.182,10.066,0.314,19.856,0.505,29.316c0.229,11.523,0.542,22.564,1.104,33.002
						c0.152,2.791,0.324,5.541,0.514,8.25c0.887,12.5,2.238,24.023,4.4,34.377c2.695,13.008,6.657,24.133,12.561,33.002
						c2,3.024,4.229,5.774,6.714,8.25c5.57,5.569,12.398,9.723,20.788,12.279c10.59,3.218,20.912,10.904,30.53,22.098
						c7.685,8.924,14.913,20.09,21.474,33.001c1.354,2.668,2.686,5.432,3.98,8.251c4.857,10.561,9.275,22.084,13.151,34.376
						c3.313,10.492,6.228,21.548,8.685,33.002c0.591,2.723,1.143,5.473,1.676,8.25c2.143,11.151,3.848,22.661,5.048,34.377
						c1.124,10.85,1.829,21.877,2.048,33.001c0.057,2.736,0.085,5.487,0.085,8.251c0,1.691-0.009,3.382-0.038,5.087
						c-0.152,10.919,0.753,20.613,2.495,29.289C2512.153,3061.295,2578.613,3066.686,2589.669,3112.09z"/>
				</g>
				<g>
					<polygon fill="#97A6B7" points="2100.646,2544.17 2110.258,3101.34 2022.044,3084.459 2022.044,2597.079 2093.525,2548.965 
						2099.744,2544.77 					"/>
					<rect x="2100.646" y="2543.621" fill="#F4F7FA" width="218.468" height="557.719"/>
					<rect x="2142.258" y="2605.221" fill="#97A6B7" width="27.742" height="459.494"/>
					<rect x="2200.055" y="2605.221" fill="#97A6B7" width="28.897" height="459.494"/>
					<rect x="2257.85" y="2605.221" fill="#97A6B7" width="28.898" height="459.494"/>
					<rect x="2160.753" y="2605.221" opacity="0.5" fill="#97A6B7" width="9.247" height="459.494"/>
					<rect x="2219.704" y="2605.221" opacity="0.5" fill="#97A6B7" width="9.248" height="459.494"/>
					<rect x="2278.656" y="2605.221" opacity="0.5" fill="#97A6B7" width="9.246" height="459.494"/>
					<path opacity="0.1" fill="#97A6B7" d="M2319.113,3101.307v0.033l-218.468-14.93l-78.602-1.951v-56.688
						c36.41-63.131,24.424-89.385,32.284-136.217c7.676-45.716-8.52-286.602,39.197-342.59c1.723-2.047,3.525-3.828,5.421-5.344
						c0.266,0.383,0.532,0.766,0.798,1.148c0.301,0.434,0.602,0.866,0.901,1.299c24.829,35.777,36.203,52.858,41.612,71.021
						c5.271,17.697,4.879,36.41,5.734,74.452c1.063,46.782,0.844,87.487,12.761,115.506c2.497,5.91,5.536,11.237,9.247,15.949
						c7.201,9.173,16.911,15.982,30.055,19.962c1.456,0.449,2.947,0.865,4.484,1.231c5.121,1.231,10.184,3.163,15.165,5.71
						c3.122,1.582,6.208,3.413,9.248,5.494c10.206,6.909,19.95,16.399,28.897,27.936c7.561,9.74,14.553,20.928,20.807,33.23
						c2.855,5.628,5.561,11.488,8.092,17.564c0.393,0.932,0.773,1.864,1.154,2.813c14.148,35.028,22.541,76.565,21.802,118.853
						C2309.381,3074.203,2312.986,3089.021,2319.113,3101.307z"/>
				</g>
				<g>
					<rect x="2113.473" y="2888.928" opacity="0.5" fill="#97A6B7" width="70.891" height="4.18"/>
					<rect x="2113.473" y="2940.884" opacity="0.5" fill="#97A6B7" width="70.891" height="4.181"/>
					<rect x="2113.473" y="2992.84" opacity="0.5" fill="#97A6B7" width="70.891" height="4.181"/>
					<g>
						<polygon fill="#97A6B7" points="2041.224,2860.67 2041.224,3112.09 1928.379,3092.583 1928.379,2884.539 						"/>
						<rect x="2041.224" y="2861.267" fill="#F4F7FA" width="353.002" height="250.823"/>
						<g>
							<rect x="2104.88" y="2891.127" fill="#97A6B7" width="69.442" height="39.415"/>
							<rect x="2200.363" y="2891.127" fill="#97A6B7" width="70.891" height="39.415"/>
							<rect x="2297.295" y="2891.127" fill="#97A6B7" width="69.442" height="39.415"/>
							<rect x="2104.88" y="2943.083" fill="#97A6B7" width="69.442" height="39.415"/>
							<rect x="2200.363" y="2943.083" fill="#97A6B7" width="70.891" height="39.415"/>
							<rect x="2297.295" y="2943.083" fill="#97A6B7" width="69.442" height="39.415"/>
							<rect x="2104.88" y="2995.039" fill="#97A6B7" width="69.442" height="39.415"/>
							<rect x="2200.363" y="2995.039" fill="#97A6B7" width="70.891" height="39.415"/>
							<rect x="2297.295" y="2995.039" fill="#97A6B7" width="69.442" height="39.415"/>
							<rect x="2104.88" y="3046.996" fill="#97A6B7" width="69.442" height="39.414"/>
							<rect x="2200.363" y="3046.996" fill="#97A6B7" width="70.891" height="39.414"/>
							<rect x="2297.295" y="3046.996" fill="#97A6B7" width="69.442" height="39.414"/>
						</g>
						<rect x="2104.88" y="2891.127" opacity="0.5" fill="#97A6B7" width="69.442" height="4.18"/>
						<rect x="2104.88" y="2943.083" opacity="0.5" fill="#97A6B7" width="69.442" height="4.181"/>
						<rect x="2104.88" y="2995.039" opacity="0.5" fill="#97A6B7" width="69.442" height="4.181"/>
						<rect x="2104.88" y="3046.996" opacity="0.5" fill="#97A6B7" width="69.442" height="4.18"/>
						<path opacity="0.1" fill="#97A6B7" d="M2394.226,3107.928v4.162h-353.002l-112.845-19.507v-25.331
							c7.551-7.937,16.666-15.664,27.487-22.048c41.478-24.485,27.966-34.44,36.646-52.356
							c8.682-17.916-10.604-115.057,48.712-131.581c55.453,27.668,51.604,26.474,53.528,55.94
							c1.027,15.76,0.955,29.697,10.128,40.047c7.956,8.994,22.901,15.271,51.604,17.678c6.033,0.508,11.994,1.314,17.838,2.395
							c18.662,3.434,36.212,9.639,51.084,17.713c19.561,10.6,34.563,24.42,41.55,39.415c1.925,4.103,3.241,8.302,3.878,12.542
							c0.217,1.408,0.361,2.83,0.42,4.252c0.058,1.236,0.058,2.472,0,3.708c-0.029,0.437-0.029,0.866,0,1.29
							c0.274,10.713,10.98,18.102,26.041,23.769c6.38,2.401,13.541,4.491,21.035,6.396
							C2348.263,3094.02,2383.361,3098.611,2394.226,3107.928z"/>
					</g>
				</g>
			</g>
		</g>
		<g>
			
				<linearGradient id="SVGID_40_" gradientUnits="userSpaceOnUse" x1="5730.8066" y1="1857.6357" x2="5741.1504" y2="1857.6357" gradientTransform="matrix(0.9998 0.0213 -0.0213 0.9998 -2892.4282 -129.7341)">
				<stop  offset="0" style="stop-color:#FF9085"/>
				<stop  offset="1" style="stop-color:#FB6FBB"/>
			</linearGradient>
			<path fill="url(#SVGID_40_)" d="M2796.322,1912.543l6.34-118.294c0.553-4.479,2.274-7.497,3.561-7.445
				c1.279,0.051,2.736,3.164,2.963,7.584c-0.84,39.458-1.68,78.917-2.521,118.375L2796.322,1912.543z"/>
			
				<linearGradient id="SVGID_41_" gradientUnits="userSpaceOnUse" x1="4983.5078" y1="1345.8213" x2="5762.0986" y2="2701.8418" gradientTransform="matrix(0.9181 0.3963 -0.3963 0.9181 -1393.1975 -1189.5164)">
				<stop  offset="0" style="stop-color:#FCB148"/>
				<stop  offset="0.0521" style="stop-color:#FDBA46"/>
				<stop  offset="0.1424" style="stop-color:#FFC244"/>
				<stop  offset="0.3183" style="stop-color:#FFC444"/>
				<stop  offset="0.4849" style="stop-color:#FDB946"/>
				<stop  offset="0.7754" style="stop-color:#F99C4D"/>
				<stop  offset="0.8658" style="stop-color:#F8924F"/>
				<stop  offset="1" style="stop-color:#F8924F"/>
			</linearGradient>
			<path fill="url(#SVGID_41_)" d="M3064.139,3033.711c-16.695-23.277-113.008-254.545-145.179-358.378
				s-61.173-266.813-69.702-314.749c-8.529-47.935-16.729-380.475-16.729-380.475l-66.824-1.422c0,0-17.8,297.603-36.691,377.426
				c-18.892,79.824-54.643,233.784-86.898,313.323c-32.257,79.539-160.713,370.965-180.365,396.883
				c-19.654,25.918-62.327,56.382-62.327,56.382l227.091,4.838c-1.976-10.428-2.923-21.209-2.688-32.244
				c1.819-85.412,72.534-153.177,157.946-151.357c85.41,1.818,153.176,72.533,151.357,157.945c-0.235,11.034-1.641,21.766-4.06,32.1
				l3.374,0.072l219.234,4.669C3151.678,3138.724,3080.834,3056.988,3064.139,3033.711z M2696.146,2814.158
				c0,0,44.814-41.379,51.561-178.766l80.381,1.713c0,0-8.304,120.783,53.448,181.002L2696.146,2814.158z"/>
			
				<linearGradient id="SVGID_42_" gradientUnits="userSpaceOnUse" x1="5735.0811" y1="2652.915" x2="5739.7515" y2="2309.6523" gradientTransform="matrix(0.9998 0.0213 -0.0213 0.9998 -2892.4282 -129.7341)">
				<stop  offset="0" style="stop-color:#FF9085"/>
				<stop  offset="1" style="stop-color:#FB6FBB"/>
			</linearGradient>
			<path fill="url(#SVGID_42_)" d="M2928.633,2605.342l-283.656-6.042c-1.277-0.027-2.3-1.095-2.273-2.372l0.908-42.609
				c0.027-1.277,1.094-2.301,2.371-2.273l283.656,6.041c1.277,0.027,2.301,1.096,2.273,2.372l-0.908,42.61
				C2930.978,2604.346,2929.91,2605.368,2928.633,2605.342z"/>
			
				<linearGradient id="SVGID_43_" gradientUnits="userSpaceOnUse" x1="5720.4492" y1="2674.1533" x2="5708.7085" y2="2528.5662" gradientTransform="matrix(0.9998 0.0213 -0.0213 0.9998 -2892.4282 -129.7341)">
				<stop  offset="0" style="stop-color:#FF9085"/>
				<stop  offset="1" style="stop-color:#FB6FBB"/>
			</linearGradient>
			<path fill="url(#SVGID_43_)" d="M3035.061,2889.832L2526.532,2879c-1.394-0.029-2.509-1.193-2.479-2.587l0.99-46.483
				c0.029-1.394,1.193-2.51,2.588-2.479l508.527,10.831c1.394,0.029,2.51,1.193,2.48,2.587l-0.99,46.484
				C3037.618,2888.745,3036.454,2889.861,3035.061,2889.832z"/>
			
				<linearGradient id="SVGID_44_" gradientUnits="userSpaceOnUse" x1="5704.8643" y1="2087.2178" x2="5770.0967" y2="1942.7743" gradientTransform="matrix(0.9998 0.0213 -0.0213 0.9998 -2892.4282 -129.7341)">
				<stop  offset="0" style="stop-color:#FF9085"/>
				<stop  offset="1" style="stop-color:#FB6FBB"/>
			</linearGradient>
			<path fill="url(#SVGID_44_)" d="M2830.478,1900.854c9.491,6.591,11.431,17.928,12.392,23.544
				c2.85,16.657-5.038,21.983-1.113,35.434c0.979,3.353,5.299,8.945,13.9,19.994c17.143,22.021,21.935,26.166,22.18,34.854
				c0.246,8.758-4.313,15.102-5.519,16.699c-9.632,12.76-28.399,11.947-28.399,11.947l-39.737-0.846l-10.899-0.232l-39.737-0.847
				c0,0-18.786,0.013-27.866-13.146c-1.137-1.648-5.42-8.181-4.801-16.918c0.613-8.672,5.578-12.609,23.643-33.879
				c9.064-10.674,13.619-16.078,14.738-19.385c4.494-13.271-3.158-18.928,0.396-35.449c1.199-5.57,3.62-16.814,13.384-22.994
				C2782.086,1893.904,2821.681,1894.747,2830.478,1900.854z"/>
		</g>
		<g>
			<g>
				<linearGradient id="SVGID_45_" gradientUnits="userSpaceOnUse" x1="898.2925" y1="823.8076" x2="2568.2256" y2="823.8076">
					<stop  offset="0" style="stop-color:#311944"/>
					<stop  offset="1" style="stop-color:#6B3976"/>
				</linearGradient>
				<path fill="url(#SVGID_45_)" d="M2567.785,727.013l-27.758,197.062c-3.815,27.061-31.426,47.316-61.769,46.618l-1543.97-35.478
					c-23.349-0.537-38.638-19.053-35.616-42.684l21.942-171.626c0.294-2.301,0.163-5.09,0.791-7.282
					c5.808-20.495,24.729-36.718,45.921-36.718h1552.144C2550.003,676.904,2571.618,699.82,2567.785,727.013z"/>
				<linearGradient id="SVGID_46_" gradientUnits="userSpaceOnUse" x1="1157.0854" y1="823.8398" x2="2482.6064" y2="823.8398">
					<stop  offset="0" style="stop-color:#311944"/>
					<stop  offset="1" style="stop-color:#6B3976"/>
				</linearGradient>
				<path fill="url(#SVGID_46_)" d="M2482.397,757.957c1.829-13.031-8.526-23.628-23.104-23.693l-1261.787-5.627
					c-11.807-0.053-22.668,9.367-24.187,21.061l-16.056,123.884c-1.516,11.668,6.811,21.325,18.579,21.548l1257.563,23.909
					c14.527,0.276,27.804-10.055,29.628-23.053L2482.397,757.957z"/>
				<g>
					<g>
						<linearGradient id="SVGID_47_" gradientUnits="userSpaceOnUse" x1="966.4697" y1="774.2637" x2="1067.4951" y2="774.2637">
							<stop  offset="0" style="stop-color:#311944"/>
							<stop  offset="1" style="stop-color:#6B3976"/>
						</linearGradient>
						<path fill="url(#SVGID_47_)" d="M1060.656,743.836c-14.054-22.247-45.085-26.594-69.152-9.781
							c-16.833,11.761-25.881,30.833-24.972,48.816c0.379,7.62,2.537,15.044,6.651,21.63c11.839,18.962,36.073,25.128,57.955,16.148
							c3.763-1.535,7.429-3.507,10.973-5.947c0.288-0.198,0.561-0.397,0.849-0.595c2.876-2.046,5.522-4.329,7.911-6.771
							C1068.207,789.736,1072.861,763.187,1060.656,743.836z M991.113,798.337c-1.158-1.233-2.206-2.604-3.132-4.097
							c-9.144-14.634-3.733-35.476,12.101-46.508c15.878-11.063,36.35-8.179,45.59,6.493c9.255,14.698,3.766,35.666-12.209,46.706
							c-6.042,4.166-12.743,6.322-19.206,6.572C1005.403,807.882,996.958,804.723,991.113,798.337z"/>
					</g>
					<g>
						<linearGradient id="SVGID_48_" gradientUnits="userSpaceOnUse" x1="1039.2329" y1="858.7002" x2="1098.9937" y2="858.7002">
							<stop  offset="0" style="stop-color:#311944"/>
							<stop  offset="1" style="stop-color:#6B3976"/>
						</linearGradient>
						<path fill="url(#SVGID_48_)" d="M1097.229,866.1c3.623,5.762,1.486,13.885-4.768,18.136l-10.366,7.045
							c-6.236,4.239-14.208,3.005-17.81-2.748l-23.309-37.234c-3.583-5.724-1.469-13.808,4.727-18.063l10.298-7.073
							c6.213-4.268,14.175-3.086,17.78,2.647L1097.229,866.1z"/>
					</g>
					<g>
						<linearGradient id="SVGID_49_" gradientUnits="userSpaceOnUse" x1="1029.5093" y1="822.8037" x2="1063.5796" y2="822.8037">
							<stop  offset="0" style="stop-color:#311944"/>
							<stop  offset="1" style="stop-color:#6B3976"/>
						</linearGradient>
						<path fill="url(#SVGID_49_)" d="M1062.046,825.104c3.149,5.013,1.291,12.104-4.147,15.831l0,0
							c-5.433,3.724-12.379,2.678-15.518-2.33l-11.349-18.113c-3.13-4.995-1.283-12.065,4.128-15.798l0,0
							c5.417-3.737,12.355-2.718,15.497,2.282L1062.046,825.104z"/>
					</g>
				</g>
				<linearGradient id="SVGID_50_" gradientUnits="userSpaceOnUse" x1="898.2925" y1="842.4731" x2="2540.1738" y2="842.4731">
					<stop  offset="0" style="stop-color:#311944"/>
					<stop  offset="1" style="stop-color:#6B3976"/>
				</linearGradient>
				<path opacity="0.4" fill="url(#SVGID_50_)" d="M2540.174,923.631c-3.854,27.06-31.572,47.833-61.915,47.135l-1543.97-35.514
					c-23.349-0.537-38.638-19.071-35.616-42.702l21.942-171.635c0.294-2.301,0.131-4.558,0.759-6.75
					c8.195,25.756,22.046,50.152,45.477,68.711c7.269,5.761,15.257,10.95,24.422,15.464c7.09,3.493,14.714,6.579,23.063,9.167
					c5.012,1.576,10.228,2.97,15.731,4.167c4.17,0.918,8.461,1.73,12.913,2.436c4.261,0.657,8.665,1.224,13.208,1.667
					c21.531,2.163,46.175,1.875,74.381-1.423c11.967-1.407,23.684-2.773,35.17-4.113c277.292-32.252,417.189-43.866,711.327,25.777
					c203.293,48.136,433.34,33.612,584.473,64.094C2491.151,906.058,2517.659,913.436,2540.174,923.631z"/>
			</g>
			<g>
				<linearGradient id="SVGID_51_" gradientUnits="userSpaceOnUse" x1="864.9673" y1="823.335" x2="2524.2393" y2="823.335">
					<stop  offset="0.0036" style="stop-color:#F36F56"/>
					<stop  offset="1" style="stop-color:#FFC444"/>
				</linearGradient>
				<path fill="url(#SVGID_51_)" d="M2523.756,726.842l-27.595,196.388c-3.792,26.968-28.794,47.212-58.94,46.519L902.576,934.485
					c-23.217-0.534-40.27-19.035-37.265-42.596l21.832-171.114c0.293-2.294,1.092-5.072,1.716-7.258
					c5.777-20.436,25.523-36.612,46.596-36.612h1542.75C2508.539,676.904,2527.566,699.743,2523.756,726.842z"/>
				<path fill="#FFFFFF" d="M2442.281,757.703c1.818-12.989-8.467-23.553-22.954-23.618l-1254.268-5.593
					c-11.74-0.053-22.543,9.341-24.055,21.001l-15.978,123.535c-1.509,11.635,6.771,21.264,18.473,21.486l1250.079,23.767
					c14.437,0.274,27.63-10.025,29.444-22.982L2442.281,757.703z"/>
				<g>
					<g>
						<path fill="#FFFFFF" d="M1028.246,743.646c-13.971-22.183-44.826-26.517-68.757-9.752
							c-16.738,11.728-25.737,30.746-24.835,48.678c0.376,7.599,2.521,15.001,6.611,21.568c11.771,18.908,35.866,25.056,57.623,16.1
							c3.741-1.531,7.387-3.497,10.911-5.93c0.287-0.198,0.558-0.396,0.845-0.593c2.86-2.041,5.491-4.317,7.866-6.752
							C1035.749,789.415,1040.379,762.941,1028.246,743.646z M959.093,797.993c-1.152-1.229-2.194-2.596-3.114-4.084
							c-9.09-14.592-3.708-35.375,12.038-46.375c15.789-11.032,36.144-8.157,45.329,6.474c9.201,14.656,3.741,35.564-12.145,46.573
							c-6.008,4.155-12.671,6.304-19.097,6.555C973.301,807.511,964.903,804.361,959.093,797.993z"/>
					</g>
					<g>
						<path fill="#FFFFFF" d="M1064.597,865.558c3.601,5.745,1.477,13.845-4.742,18.084l-10.308,7.025
							c-6.201,4.227-14.127,2.997-17.708-2.739l-23.172-37.126c-3.563-5.708-1.459-13.769,4.702-18.012l10.24-7.053
							c6.179-4.255,14.095-3.077,17.679,2.639L1064.597,865.558z"/>
					</g>
					<g>
						<path fill="#FFFFFF" d="M1029.62,824.681c3.131,4.999,1.283,12.069-4.125,15.786l0,0c-5.403,3.713-12.309,2.671-15.429-2.323
							l-11.282-18.061c-3.112-4.98-1.274-12.031,4.106-15.754l0,0c5.386-3.726,12.286-2.71,15.408,2.275L1029.62,824.681z"/>
					</g>
				</g>
				<path opacity="0.4" fill="#FFFFFF" d="M2498.743,922.835c-3.833,26.973-31.376,47.68-61.522,46.987l-1534.645-35.3
					c-23.217-0.534-40.27-19.054-37.265-42.614l21.832-171.123c0.293-2.294,1.062-4.541,1.685-6.727
					c8.146,25.681,22.379,50.01,45.674,68.514c7.227,5.744,15.403,10.921,24.516,15.422c7.049,3.483,14.747,6.562,23.048,9.141
					c4.984,1.571,10.229,2.961,15.7,4.155c4.146,0.916,8.442,1.725,12.868,2.429c4.236,0.655,8.63,1.219,13.147,1.662
					c21.408,2.155,45.917,1.868,73.962-1.422c11.899-1.403,23.552-2.765,34.972-4.103c275.678-32.166,414.748-43.748,707.1,25.674
					c202.031,47.978,430.636,33.489,580.801,63.865C2450.037,905.322,2476.374,912.674,2498.743,922.835z"/>
			</g>
		</g>
		<g>
			<g>
				<g>
					<linearGradient id="SVGID_52_" gradientUnits="userSpaceOnUse" x1="676.9922" y1="2490.416" x2="687.3257" y2="2490.416">
						<stop  offset="0" style="stop-color:#444B8C"/>
						<stop  offset="0.9964" style="stop-color:#26264F"/>
					</linearGradient>
					<path fill="url(#SVGID_52_)" d="M687.326,2500.75c0,2.854-2.313,5.166-5.167,5.166l0,0c-2.854,0-5.167-2.313-5.167-5.166
						v-20.668c0-2.854,2.313-5.166,5.167-5.166l0,0c2.854,0,5.167,2.313,5.167,5.166V2500.75z"/>
					<linearGradient id="SVGID_53_" gradientUnits="userSpaceOnUse" x1="800.9932" y1="2490.416" x2="811.3262" y2="2490.416">
						<stop  offset="0" style="stop-color:#444B8C"/>
						<stop  offset="0.9964" style="stop-color:#26264F"/>
					</linearGradient>
					<path fill="url(#SVGID_53_)" d="M811.326,2500.75c0,2.854-2.313,5.166-5.167,5.166l0,0c-2.854,0-5.167-2.313-5.167-5.166
						v-20.668c0-2.854,2.313-5.166,5.167-5.166l0,0c2.854,0,5.167,2.313,5.167,5.166V2500.75z"/>
				</g>
				<linearGradient id="SVGID_54_" gradientUnits="userSpaceOnUse" x1="663.2144" y1="2469.75" x2="825.1045" y2="2469.75">
					<stop  offset="0" style="stop-color:#444B8C"/>
					<stop  offset="0.9964" style="stop-color:#26264F"/>
				</linearGradient>
				<path fill="url(#SVGID_54_)" d="M825.104,2469.749c0,4.757-3.855,8.611-8.611,8.611H671.826c-4.756,0-8.611-3.854-8.611-8.611
					l0,0c0-4.756,3.855-8.61,8.611-8.61h144.667C821.249,2461.139,825.104,2464.993,825.104,2469.749L825.104,2469.749z"/>
			</g>
			<g>
				<linearGradient id="SVGID_55_" gradientUnits="userSpaceOnUse" x1="604.6582" y1="2397.416" x2="625.3257" y2="2397.416">
					<stop  offset="0" style="stop-color:#444B8C"/>
					<stop  offset="0.9964" style="stop-color:#26264F"/>
				</linearGradient>
				<path fill="url(#SVGID_55_)" d="M625.326,2537.621c0,5.317-4.312,9.629-9.63,9.629h-1.408c-5.318,0-9.63-4.312-9.63-9.629
					v-280.41c0-5.318,4.312-9.63,9.63-9.63h1.408c5.318,0,9.63,4.312,9.63,9.63V2537.621z"/>
				<linearGradient id="SVGID_56_" gradientUnits="userSpaceOnUse" x1="862.9937" y1="2397.416" x2="883.6602" y2="2397.416">
					<stop  offset="0" style="stop-color:#444B8C"/>
					<stop  offset="0.9964" style="stop-color:#26264F"/>
				</linearGradient>
				<path fill="url(#SVGID_56_)" d="M883.66,2537.621c0,5.317-4.311,9.629-9.629,9.629h-1.409c-5.318,0-9.629-4.312-9.629-9.629
					v-280.41c0-5.318,4.311-9.63,9.629-9.63h1.409c5.318,0,9.629,4.312,9.629,9.63V2537.621z"/>
			</g>
			<linearGradient id="SVGID_57_" gradientUnits="userSpaceOnUse" x1="587.6558" y1="2244.1367" x2="901.7183" y2="2244.1367">
				<stop  offset="0" style="stop-color:#444B8C"/>
				<stop  offset="0.9964" style="stop-color:#26264F"/>
			</linearGradient>
			<path fill="url(#SVGID_57_)" d="M901.718,2244.137c0,10.637-10.612,20.666-23.703,20.666H611.358
				c-13.09,0-23.703-10.029-23.703-20.666l0,0c0-10.637,10.612-20.667,23.703-20.667h266.657
				C891.106,2223.47,901.718,2233.5,901.718,2244.137L901.718,2244.137z"/>
			<g>
				<g>
					<linearGradient id="SVGID_58_" gradientUnits="userSpaceOnUse" x1="869.8823" y1="3091.4746" x2="904.3271" y2="3091.4746">
						<stop  offset="0" style="stop-color:#444B8C"/>
						<stop  offset="0.9964" style="stop-color:#26264F"/>
					</linearGradient>
					<path fill="url(#SVGID_58_)" d="M904.327,3105.254c0,9.512-7.711,17.222-17.223,17.222l0,0c-9.511,0-17.222-7.71-17.222-17.222
						v-27.557c0-9.512,7.711-17.223,17.222-17.223l0,0c9.512,0,17.223,7.711,17.223,17.223V3105.254z"/>
					<linearGradient id="SVGID_59_" gradientUnits="userSpaceOnUse" x1="873.3271" y1="3051.8643" x2="904.3271" y2="3051.8643">
						<stop  offset="0" style="stop-color:#FF9085"/>
						<stop  offset="1" style="stop-color:#FB6FBB"/>
					</linearGradient>
					<path fill="url(#SVGID_59_)" d="M904.327,3056.735c0,7.772-6.301,14.073-14.074,14.073h-2.853
						c-7.772,0-14.074-6.301-14.074-14.073v-9.742c0-7.772,6.301-14.073,14.074-14.073h2.853c7.773,0,14.074,6.301,14.074,14.073
						V3056.735z"/>
				</g>
				<g>
					<linearGradient id="SVGID_60_" gradientUnits="userSpaceOnUse" x1="585.0015" y1="3091.3652" x2="620.5557" y2="3091.3652">
						<stop  offset="0" style="stop-color:#444B8C"/>
						<stop  offset="0.9964" style="stop-color:#26264F"/>
					</linearGradient>
					<path fill="url(#SVGID_60_)" d="M620.556,3104.699c0,9.817-7.959,17.776-17.777,17.776l0,0
						c-9.818,0-17.777-7.959-17.777-17.776v-26.666c0-9.818,7.959-17.777,17.777-17.777l0,0c9.818,0,17.777,7.959,17.777,17.777
						V3104.699z"/>
					<linearGradient id="SVGID_61_" gradientUnits="userSpaceOnUse" x1="587.4365" y1="3051.8643" x2="618.4365" y2="3051.8643">
						<stop  offset="0" style="stop-color:#FF9085"/>
						<stop  offset="1" style="stop-color:#FB6FBB"/>
					</linearGradient>
					<path fill="url(#SVGID_61_)" d="M618.437,3056.735c0,7.772-6.301,14.073-14.073,14.073h-2.854
						c-7.772,0-14.073-6.301-14.073-14.073v-9.742c0-7.772,6.301-14.073,14.073-14.073h2.854c7.772,0,14.073,6.301,14.073,14.073
						V3056.735z"/>
				</g>
			</g>
			<linearGradient id="SVGID_62_" gradientUnits="userSpaceOnUse" x1="525.436" y1="2776.3066" x2="962.8833" y2="2776.3066">
				<stop  offset="0" style="stop-color:#FF9085"/>
				<stop  offset="1" style="stop-color:#FB6FBB"/>
			</linearGradient>
			<path fill="url(#SVGID_62_)" d="M962.883,3021.477c0,19.636-15.918,35.555-35.555,35.555H560.99
				c-19.636,0-35.554-15.919-35.554-35.555v-490.34c0-19.636,15.918-35.555,35.554-35.555h366.339
				c19.637,0,35.555,15.919,35.555,35.555V3021.477z"/>
			<g>
				<g>
					<linearGradient id="SVGID_63_" gradientUnits="userSpaceOnUse" x1="570.2144" y1="2775.8223" x2="625.3257" y2="2775.8223">
						<stop  offset="0" style="stop-color:#FF9085"/>
						<stop  offset="1" style="stop-color:#FB6FBB"/>
					</linearGradient>
					<path opacity="0.6" fill="url(#SVGID_63_)" d="M625.326,2590.644V2961c0,12.444-7.634,22.992-18.835,26.695
						c-2.785,0.948-5.566,1.452-8.676,1.452c-0.504,0-0.872,0-1.375-0.03c-7.17-0.385-13.438-3.437-18.208-8.207
						c-5.096-5.096-8.016-12.147-8.016-19.91v-370.356c0-15.052,11.624-27.347,26.498-28.117c0.502-0.03,0.894-0.03,1.397-0.03
						c3.11,0,6.062,0.504,8.847,1.452c4.207,1.362,7.525,3.733,10.577,6.785C622.629,2575.83,625.326,2582.881,625.326,2590.644z"/>
					<linearGradient id="SVGID_64_" gradientUnits="userSpaceOnUse" x1="597.7695" y1="2775.8223" x2="625.3257" y2="2775.8223">
						<stop  offset="0" style="stop-color:#FF9085"/>
						<stop  offset="1" style="stop-color:#FB6FBB"/>
					</linearGradient>
					<path opacity="0.6" fill="url(#SVGID_64_)" d="M625.326,2590.644V2961c0,12.444-7.634,22.992-18.835,26.695
						c-2.785,0.948-4.953,1.452-8.064,1.452c-0.503,0-0.657,0-0.657-0.03v-426.591c0-0.03,0.366-0.03,0.869-0.03
						c3.11,0,5.798,0.504,8.583,1.452c4.207,1.362,7.393,3.733,10.444,6.785C622.762,2575.83,625.326,2582.881,625.326,2590.644z"/>
				</g>
				<g>
					<linearGradient id="SVGID_65_" gradientUnits="userSpaceOnUse" x1="666.6592" y1="2775.8223" x2="725.2153" y2="2775.8223">
						<stop  offset="0" style="stop-color:#FF9085"/>
						<stop  offset="1" style="stop-color:#FB6FBB"/>
					</linearGradient>
					<path opacity="0.6" fill="url(#SVGID_65_)" d="M725.215,2590.644V2961c0,12.444-8.693,22.992-19.893,26.695
						c-2.785,0.948-6.095,1.452-9.206,1.452c-0.503,0-1.136,0-1.64-0.03c-7.169-0.385-14.234-3.437-19.004-8.207
						c-5.096-5.096-8.813-12.147-8.813-19.91v-370.356c0-15.052,12.289-27.347,27.162-28.117c0.504-0.03,1.227-0.03,1.73-0.03
						c3.11,0,6.228,0.504,9.013,1.452c4.207,1.362,8.667,3.733,11.717,6.785C721.378,2575.83,725.215,2582.881,725.215,2590.644z"/>
					<linearGradient id="SVGID_66_" gradientUnits="userSpaceOnUse" x1="694.2148" y1="2775.8223" x2="725.2153" y2="2775.8223">
						<stop  offset="0" style="stop-color:#FF9085"/>
						<stop  offset="1" style="stop-color:#FB6FBB"/>
					</linearGradient>
					<path opacity="0.6" fill="url(#SVGID_66_)" d="M725.215,2590.644V2961c0,12.444-8.693,22.992-19.893,26.695
						c-2.785,0.948-6.147,1.452-9.257,1.452c-0.504,0-1.851,0-1.851-0.03v-426.591c0-0.03,1.03-0.03,1.533-0.03
						c3.11,0,6.129,0.504,8.914,1.452c4.208,1.362,8.617,3.733,11.668,6.785C721.427,2575.83,725.215,2582.881,725.215,2590.644z"/>
				</g>
				<g>
					<linearGradient id="SVGID_67_" gradientUnits="userSpaceOnUse" x1="766.5488" y1="2775.8223" x2="821.6597" y2="2775.8223">
						<stop  offset="0" style="stop-color:#FF9085"/>
						<stop  offset="1" style="stop-color:#FB6FBB"/>
					</linearGradient>
					<path opacity="0.6" fill="url(#SVGID_67_)" d="M821.66,2590.644V2961c0,12.444-8.027,22.992-19.228,26.695
						c-2.785,0.948-5.763,1.452-8.874,1.452c-0.503,0-0.97,0-1.474-0.03c-7.169-0.385-13.093-3.437-17.863-8.207
						c-5.097-5.096-7.673-12.147-7.673-19.91v-370.356c0-15.052,11.231-27.347,26.104-28.117c0.503-0.03,0.697-0.03,1.201-0.03
						c3.11,0,5.963,0.504,8.748,1.452c4.207,1.362,7.87,3.733,10.92,6.785C818.62,2575.83,821.66,2582.881,821.66,2590.644z"/>
					<linearGradient id="SVGID_68_" gradientUnits="userSpaceOnUse" x1="790.6597" y1="2775.8223" x2="821.6597" y2="2775.8223">
						<stop  offset="0" style="stop-color:#FF9085"/>
						<stop  offset="1" style="stop-color:#FB6FBB"/>
					</linearGradient>
					<path opacity="0.6" fill="url(#SVGID_68_)" d="M821.66,2590.644V2961c0,12.444-8.027,22.992-19.228,26.695
						c-2.785,0.948-6.479,1.452-9.59,1.452c-0.503,0,1.262,0-2.183-0.03v-426.591c3.445-0.03,1.695-0.03,2.198-0.03
						c3.111,0,6.461,0.504,9.247,1.452c4.207,1.362,8.118,3.733,11.169,6.785C818.371,2575.83,821.66,2582.881,821.66,2590.644z"/>
				</g>
				<g>
					<linearGradient id="SVGID_69_" gradientUnits="userSpaceOnUse" x1="862.9937" y1="2775.8223" x2="918.105" y2="2775.8223">
						<stop  offset="0" style="stop-color:#FF9085"/>
						<stop  offset="1" style="stop-color:#FB6FBB"/>
					</linearGradient>
					<path opacity="0.6" fill="url(#SVGID_69_)" d="M918.105,2590.644V2961c0,12.444-7.363,22.992-18.563,26.695
						c-2.785,0.948-5.43,1.452-8.541,1.452c-0.503,0-0.804,0-1.308-0.03c-7.169-0.385-13.675-3.437-18.445-8.207
						c-5.097-5.096-8.254-12.147-8.254-19.91v-370.356c0-15.052,11.896-27.347,26.77-28.117c0.503-0.03,1.029-0.03,1.533-0.03
						c3.11,0,6.129,0.504,8.915,1.452c4.207,1.362,7.288,3.733,10.339,6.785C915.646,2575.83,918.105,2582.881,918.105,2590.644z"/>
					<linearGradient id="SVGID_70_" gradientUnits="userSpaceOnUse" x1="890.5493" y1="2775.8223" x2="918.105" y2="2775.8223">
						<stop  offset="0" style="stop-color:#FF9085"/>
						<stop  offset="1" style="stop-color:#FB6FBB"/>
					</linearGradient>
					<path opacity="0.6" fill="url(#SVGID_70_)" d="M918.105,2590.644V2961c0,12.444-7.363,22.992-18.563,26.695
						c-2.785,0.948-5.089,1.452-8.2,1.452c-0.503,0-0.792,0-0.792-0.03v-426.591c0-0.03,0.637-0.03,1.14-0.03
						c3.11,0,5.933,0.504,8.718,1.452c4.207,1.362,7.189,3.733,10.241,6.785C915.745,2575.83,918.105,2582.881,918.105,2590.644z"/>
				</g>
			</g>
		</g>
	</g>
</g>
</svg>
