<?xml version="1.0" encoding="utf-8"?>
<!-- Generator: Adobe Illustrator 16.0.0, SVG Export Plug-In . SVG Version: 6.00 Build 0)  -->
<!DOCTYPE svg PUBLIC "-//W3C//DTD SVG 1.1//EN" "http://www.w3.org/Graphics/SVG/1.1/DTD/svg11.dtd">
<svg version="1.1" xmlns="http://www.w3.org/2000/svg" xmlns:xlink="http://www.w3.org/1999/xlink" x="0px" y="0px" width="1122px"
	 height="800px" viewBox="0 0 1122 800" enable-background="new 0 0 1122 800" xml:space="preserve">
<g id="Background">
	<rect x="1849.598" y="379.043" fill="#FFFFFF" width="1122" height="800"/>
</g>
<g id="shadow">
	<path opacity="0.1" fill="#606060" d="M952.963,586.246H226.199c-22.988,0-41.796,12.031-41.796,26.737l0,0
		c0,10.183,9.022,19.079,22.202,23.591h-63.998c-22.988,0-41.796,12.032-41.796,26.737l0,0c0,14.705,18.808,26.736,41.796,26.736
		h22.3c-6.228,4.673-10.007,10.716-10.007,17.301v10.694c0,14.706,18.808,26.737,41.796,26.737h715.946
		c22.988,0,41.796-12.031,41.796-26.737v-10.694c0-14.705-18.808-26.737-41.796-26.737l-48.681,0.595
		c3.708,0,9.729-1.871,13.769-5.634c7.082-6.596,7.396-16.636,3.934-24.947c-2.245-5.387-5.841-9.659-14.752-11.266l86.052,0.36
		c22.988,0,41.796-12.031,41.796-26.736l0,0C994.759,598.277,975.951,586.246,952.963,586.246z"/>
</g>
<g id="object">
	<g>
		<path fill="#334C60" d="M684.25,675.23l-289.247,0.419c-6.232,0.009-11.291-5.035-11.3-11.268l-0.687-473.874
			c-0.009-6.232,5.036-11.291,11.268-11.3l289.247-0.419c6.231-0.009,11.291,5.036,11.3,11.268l0.687,473.875
			C695.526,670.162,690.482,675.222,684.25,675.23z"/>
		
			<rect x="399.443" y="205.337" transform="matrix(1 -0.0014 0.0014 1 -0.6042 0.7815)" fill="#FFFFFF" width="278.976" height="423.967"/>
		
			<rect x="522.892" y="649.218" transform="matrix(1 -0.0015 0.0015 1 -0.954 0.7894)" fill="#FFFFFF" width="33.405" height="7.709"/>
	</g>
	<g>
		<g>
			<defs>
				
					<rect id="SVGID_1_" x="399.443" y="206.843" transform="matrix(1 -0.0014 0.0014 1 -0.6057 0.7805)" width="278.977" height="423.967"/>
			</defs>
			<use xlink:href="#SVGID_1_"  overflow="visible" fill="#F4EBE1"/>
			<clipPath id="SVGID_2_">
				<use xlink:href="#SVGID_1_"  overflow="visible"/>
			</clipPath>
			<polygon clip-path="url(#SVGID_2_)" fill="#A6CAA2" points="397.523,245.255 557.748,271.417 515.456,371.885 385.433,350.421 
							"/>
			<path clip-path="url(#SVGID_2_)" fill="#A3CEDF" d="M415.042,555.922c13.189,5.691,27.36,8.676,41.029,13.094
				c24.834,8.027,47.867,20.738,70.363,33.971c13.272,7.807,26.421,15.822,39.439,24.044c6.332,3.998,12.782,8.11,20.06,9.874
				c14.218,3.445,28.836-2.554,42.235-8.427c2.616-4.213,1.14-9.987-2.126-13.719c-3.265-3.731-7.927-5.884-12.454-7.906
				c-36.168-16.155-73.019-30.782-110.418-43.837c-37.031-12.926-77.172-28.958-116.017-34.609
				C378.319,542.331,405.934,551.991,415.042,555.922z"/>
			<path clip-path="url(#SVGID_2_)" fill="#FFFFFF" d="M379.994,230.538c0.131,5.872,0.455,11.754,0.814,17.64l324.755,53.608
				l2.813-17.041L379.994,230.538z"/>
			<path clip-path="url(#SVGID_2_)" fill="#FFFFFF" d="M377.5,341.677c-0.19,2.887-0.37,5.775-0.542,8.663l322.973,53.314
				l1.407-8.52L377.5,341.677z"/>
			<polygon clip-path="url(#SVGID_2_)" fill="#FFFFFF" points="588.28,192.204 417.498,590.453 426.219,597.721 603.541,186.39 			
				"/>
			<path clip-path="url(#SVGID_2_)" fill="#A6CAA2" d="M462.439,587.66c10.268,3.815,21.292,8.235,26.98,17.597
				c6.641,10.932,3.845,25.017-0.375,37.091c-2.996,8.573-7.391,17.738-15.816,21.129c-8.081,3.252-17.178,0.124-25.312-2.994
				c-18.172-6.966-36.345-13.932-54.518-20.898c-2.475-0.948-5.01-1.934-6.984-3.701c-3.371-3.021-4.525-7.754-5.316-12.211
				c-2.613-14.729-10.385-54.972,9.952-59.508c9.602-2.142,22.457,5.315,31.014,8.496
				C435.522,577.661,448.981,582.66,462.439,587.66z"/>
			<polygon clip-path="url(#SVGID_2_)" fill="#FFFFFF" points="448.021,360.079 399.137,495.978 399.582,514.874 456.742,360.079 
							"/>
			<polygon clip-path="url(#SVGID_2_)" fill="#FFFFFF" points="428.162,437.477 476.469,452.938 479.97,444.773 432.318,426.221 			
				"/>
			<polygon clip-path="url(#SVGID_2_)" fill="#FFFFFF" points="618.804,269.959 644.238,206.642 659.5,206.642 629.51,271.727 			
				"/>
			<polygon clip-path="url(#SVGID_2_)" fill="#FFFFFF" points="445.401,241.335 456.742,206.642 466.188,206.949 454.066,245.255 
							"/>
			<polygon clip-path="url(#SVGID_2_)" fill="#FFFFFF" points="502.28,252.13 513.621,195.837 523.068,196.335 510.945,258.491 			
				"/>
			<polygon clip-path="url(#SVGID_2_)" fill="#FFFFFF" points="490.665,448.227 678.727,528.406 678.6,543.214 485.941,459.184 			
				"/>
			<polygon clip-path="url(#SVGID_2_)" fill="#FFFFFF" points="543.978,484.497 523.068,543.214 678.688,603.533 678.672,592.631 
				538.932,537.401 610.082,384.788 600.878,381.154 			"/>
			<polygon clip-path="url(#SVGID_2_)" fill="#FFFFFF" points="538.932,331.009 687.843,365.067 687.843,348.039 538.932,316.117 
							"/>
			<polygon clip-path="url(#SVGID_2_)" fill="#F4EBE1" points="385.433,271.727 466.188,294.673 445.401,332.463 387.995,328.136 
							"/>
			
				<rect x="421.319" y="463.72" transform="matrix(0.5 -0.866 0.866 0.5 -103.0465 778.1393)" clip-path="url(#SVGID_2_)" fill="#F2D263" width="402.092" height="29.18"/>
		</g>
	</g>
	<g>
		<polygon fill="#A16652" points="824.825,692.551 824.825,699.1 811.728,705.649 805.179,699.1 811.728,692.551 824.825,686.002 		
			"/>
		<g>
			<polygon fill="#2E4661" points="818.719,518.066 845.366,700.386 857.478,700.386 865.128,600.938 881.702,501.492 			"/>
			<polygon fill="#2E4661" points="845.238,494.862 845.238,514.751 818.719,600.938 825.349,690.44 812.358,693.039 
				782.255,584.364 783.27,552.18 795.515,486.539 			"/>
		</g>
	</g>
	<g>
		<path fill="#272525" d="M265.136,715.199c0.087-0.57,0.331-1.228,0.714-2.001c1.022-2.061,2.071-4.338,3.461-6.18
			c1.255-1.662,3.766-1.259,5.64-1.011c2.903,0.384,5.807,0.767,8.71,1.15c0.134,0.018,0.274,0.038,0.382,0.119
			c0.29,0.22,0.155,0.675-0.006,1.001c-1.538,3.104-3.075,6.209-4.612,9.313c-0.287,0.578-0.591,1.18-1.111,1.562
			c-0.602,0.442-1.392,0.519-2.139,0.541c-2.947,0.087-5.922-0.424-8.666-1.508C265.636,717.446,264.926,716.581,265.136,715.199z"
			/>
		<polygon fill="#CAB5A1" points="247.695,578.556 265.235,647.547 265.552,716.971 272.741,719.354 277.979,716.687 
			288.265,644.859 295.309,574.241 		"/>
	</g>
	<g>
		<path fill="#272525" d="M196.669,712.045c0.241-0.523,0.657-1.088,1.239-1.725c1.552-1.698,3.19-3.597,5.036-4.981
			c1.665-1.25,3.967-0.168,5.699,0.588c2.684,1.172,5.368,2.343,8.052,3.515c0.124,0.054,0.253,0.112,0.334,0.221
			c0.218,0.29-0.038,0.69-0.283,0.959c-2.336,2.559-4.672,5.117-7.008,7.676c-0.436,0.477-0.895,0.97-1.5,1.192
			c-0.701,0.259-1.481,0.113-2.205-0.071c-2.856-0.73-5.574-2.045-7.911-3.845C196.528,714.343,196.084,713.315,196.669,712.045z"/>
		<polygon fill="#CAB5A1" points="218.414,573.416 213.61,642.703 197.296,711.371 203.545,715.65 209.316,714.534 239.065,648.354 
			265.363,582.437 		"/>
	</g>
	<path opacity="0.07" fill="#272525" d="M219.86,608.739c0,0,65.469,10.435,71.303,4.601l1.296-11.731L219.86,608.739z"/>
	<g>
		<path fill="#EBCEB1" d="M344.124,440.87c0.065-0.083,0.133-0.176,0.131-0.281c-0.003-0.145-0.133-0.249-0.251-0.332
			c-1.038-0.729-2.076-1.457-3.114-2.186c-0.148-0.104-0.306-0.211-0.486-0.222c-0.206-0.012-0.396,0.104-0.568,0.219
			c-1.21,0.803-2.361,1.695-3.439,2.668c-1.005-0.746-2.089-1.386-3.228-1.905c-2.982,4.464-5.965,8.928-8.947,13.392
			c1.992,0.493,3.983,0.987,5.975,1.48c0.259,0.063,0.529,0.128,0.789,0.065c0.305-0.073,0.541-0.308,0.759-0.533
			C335.812,449.047,340.401,445.744,344.124,440.87z"/>
		<polygon fill="#AECCDC" points="268.128,491.205 289.872,503.208 337.774,450.208 328.815,442.264 288.682,467.673 
			277.672,449.493 255.002,467.801 		"/>
	</g>
	<g>
		<g>
			<path fill="#EACDB0" d="M833.115,398.52c3.974-0.542,7.946-1.084,11.92-1.626c-0.079-3.197-0.414-6.388-1.001-9.532
				c3.281-1.291,7.058-3.185,7.509-6.682c0.142-1.102-0.089-2.213-0.318-3.3c-0.947-4.492-1.895-8.983-2.843-13.475
				c-0.327-1.554-0.675-3.153-1.574-4.461c-1.578-2.296-4.512-3.217-7.272-3.593c-7.045-0.957-14.617,0.84-19.877,5.625
				c-1.399,1.273-2.651,2.789-3.223,4.593c-0.881,2.781-0.035,5.782,0.81,8.575c0.779,2.578,1.559,5.156,2.338,7.733
				c0.896,2.965,2.157,6.326,5.083,7.343c1.553,0.54,3.354,0.299,4.774,1.129C831.942,392.315,831.747,395.963,833.115,398.52z"/>
			<path fill="#3A3029" d="M791.052,354.925c-0.729-1.104-1.51-2.166-2.376-3.157c-1.877-2.147-4.158-3.962-5.693-6.366
				c-1.535-2.403-2.166-5.714-0.516-8.04c1.064-1.501,2.853-2.297,4.598-2.882c5.75-1.925,12.02-2.271,17.947-0.993
				c5.646,1.218,10.738,3.391,16.291,1.081c5.218-2.171,9.068-1.507,14.67,0.262c6.063,1.915,14.113,2.123,19.641,4.937
				c2.308,1.175,4.185,3.075,5.672,5.196c5.15,7.348,5.56,17.726,1.004,25.456c-1.022,1.734-2.264,3.331-3.572,4.86
				c-2.71,3.165-5.947,7.071-9.789,8.348c-0.22-3.47,2.54-14.541-0.232-17.289c-4.399-4.362-13.914-2.433-19.125-1.127
				c-5.685,1.424-10.641,5.669-16.289,6.745c-4.063,0.774-9.354-1.038-12.906-3.022C795.99,366.484,793.713,358.953,791.052,354.925
				z"/>
		</g>
		<g>
			<polygon fill="#EACDB0" points="771.442,368.184 769.682,361.325 772.945,356.001 772.168,354.737 770.573,355.63 
				772.017,350.437 770.23,346.442 764.524,345.286 759.14,347.968 758.593,353.756 761.474,360.041 763.477,369.533 			"/>
			<polygon fill="#E89F40" points="774.136,360.873 780.252,405.193 831.592,394.477 813.234,434.481 762.325,429.196 
				760.729,364.182 			"/>
		</g>
		<polygon fill="#EACDB0" points="907.164,368.792 909.621,362.106 906.896,356.448 907.802,355.261 909.308,356.317 
			908.39,350.973 910.583,347.157 916.41,346.579 921.526,349.81 921.487,355.657 917.967,361.654 914.999,370.951 		"/>
		<polygon fill="#E89F40" points="905.538,363.937 895.099,403.973 857.089,396.159 866.14,437.599 913.198,428.151 
			920.183,364.037 		"/>
		<path fill="#E89F40" d="M888.594,523.243c0.177,8.102-0.078,19.02-3.19,19.419c-0.583,0.075-1.142-0.213-1.651-0.491
			c-5.383-2.938-9.19-7.074-14.495-9.913c-5.561-2.976-11.921-4.557-18.159-5.664c-9.328-1.704-18.863-2.761-28.37-2.927
			c-8.205-0.143-18.171-0.474-26.101,1.711c-6.084,2.281-12.102,4.636-18.108,7.167c3.407-30.709,9.021-61.173,16.777-91.08
			c2.969-11.447,3.455-22.727,11.84-31.097c7.426-7.412,5.462-17.255,26.054-16.297c36.026,1.676,25.382-1.437,40.267,29.135
			c3.378,6.938,7.532,25.88,8.755,33.43c1.48,9.144,2.852,18.306,3.918,27.501c1.189,10.263,2.007,20.571,2.18,30.896
			C888.327,516.18,888.509,519.394,888.594,523.243z"/>
	</g>
	<g>
		<rect x="493.052" y="268.811" opacity="0.09" width="437.953" height="89.444"/>
		<rect x="482.895" y="256.527" fill="#FFFFF3" width="437.953" height="89.444"/>
	</g>
	<g>
		<g>
			<g>
				<g>
					<g>
						<g>
							<polygon fill="#8E999E" points="330.945,432.787 311.366,412.466 382.522,343.908 404.245,362.164 							"/>
							<path fill="#2E4661" d="M290.2,452.677l-0.226-0.234c-6.176-6.41-7.285-15.361-2.478-19.993l54.595-53.407l23.738,23.593
								l-55.742,53.261C305.28,460.528,296.376,459.087,290.2,452.677z"/>
						</g>
					</g>
					<g>
						<path fill="#59595B" d="M507.99,362.705c33.782-32.548,34.782-86.319,2.234-120.101
							c-32.548-33.782-86.319-34.782-120.101-2.234s-34.782,86.319-2.234,120.101S474.208,395.252,507.99,362.705z M396.437,352.235
							c-28-29.061-27.14-75.318,1.922-103.318c29.061-28,75.318-27.14,103.318,1.922c28,29.061,27.139,75.318-1.922,103.318
							S424.437,381.296,396.437,352.235z"/>
						<circle opacity="0.73" fill="#B1CFDF" cx="449.056" cy="301.537" r="73.069"/>
					</g>
				</g>
				<g>
					<g opacity="0.22">
						<path fill="#FFFFFF" d="M464.73,251.181c22.685,5.323,39.447,25.14,40.248,48.515c0.799,23.316-14.745,44.609-37.134,51.151
							c-6.311,1.844-3.915,11.769,2.405,9.922c25.775-7.531,43.96-30.724,44.932-57.543c0.958-26.431-15.961-50.356-40.41-59.699
							c-2.364-0.904-4.806-1.593-7.268-2.17C461.119,239.858,458.3,249.672,464.73,251.181L464.73,251.181z"/>
					</g>
					<circle opacity="0.31" fill="#FFFFFF" cx="449.782" cy="358.369" r="6.723"/>
				</g>
			</g>
			<path fill="#A16652" d="M342.806,380.112l22.585,22.447c0.776,0.771,2.009,0.829,2.854,0.136l0.274-0.226
				c0.982-0.806,1.045-2.287,0.135-3.173l-22.83-22.253c-0.854-0.833-2.227-0.802-3.042,0.069l-0.029,0.031
				C341.965,377.984,341.988,379.3,342.806,380.112z"/>
			<g>
				<path fill="#6A8478" d="M431.198,370.545c-17.019-4.337-31.977-14.667-41.962-29.131c-9.857-14.278-14.14-31.786-12.324-49.005
					c1.856-17.605,10.574-34.073,23.665-45.888c12.75-11.507,29.597-18.01,46.727-18.416c17.762-0.421,35.399,6.025,48.825,17.62
					c12.934,11.169,21.632,26.977,24.198,43.867c2.678,17.634-1.466,35.846-11.209,50.741
					c-9.382,14.343-24.041,24.848-40.448,29.616C456.484,373.49,443.494,373.583,431.198,370.545
					c-2.433-0.602-3.38,3.169-0.946,3.771c17.082,4.221,34.996,2.441,50.948-4.948c15.573-7.215,28.39-19.937,35.973-35.3
					c7.864-15.934,9.803-34.383,5.683-51.635c-3.96-16.583-13.78-31.619-27.189-42.102c-14.015-10.957-31.735-16.632-49.5-16.084
					c-17.165,0.529-33.735,7.187-46.829,18.213c-13.462,11.336-22.481,27.457-25.575,44.734c-3.067,17.13,0.037,34.931,8.395,50.156
					c10.096,18.392,27.82,31.8,48.094,36.966C432.682,374.935,433.627,371.164,431.198,370.545z"/>
			</g>
		</g>
	</g>
	<path fill="#AECCDC" d="M265.015,422.876c3.88,3.637,6.129,13.301,8.056,17.688c11.938,27.119,22.179,54.944,32.011,82.883
		c4.928,14.004,9.751,28.044,14.636,42.063c0.898,2.577,10.805,33.567,11.494,33.485c-46.515,5.577-82.328,13.229-128.8,8.456
		c-5.376-0.563-5.582-33.414-5.886-37.625c-1.507-20.894-1.728-41.952,0.769-62.78c1.863-15.543,5.256-30.946,10.631-45.664
		c4.225-11.569,10.778-32.201,22.758-38.048c6.42-3.132,27.019-5.063,33.304-1.251C264.341,422.3,264.684,422.565,265.015,422.876z"
		/>
	<path fill="#F2D042" d="M286.087,400.998c-3.108,7.14-8.954,12.664-14.647,17.977c-13.626,12.715-27.252,25.43-40.877,38.145
		c-0.588,0.549-1.193,1.108-1.936,1.418c-1.277,0.531-2.729,0.24-4.08-0.059c-14.291-3.166-28.583-6.332-42.874-9.498
		c6.471-15.519,13.906-30.635,22.247-45.233c6.016-10.53,12.759-21.068,22.635-28.105c9.823-7,32.101-15.83,44.261-12.39
		C285.673,367.454,291.728,388.042,286.087,400.998z"/>
	<g>
		<path fill="#EBCEB1" d="M311.221,414.688c0.043-0.096,0.088-0.202,0.061-0.304c-0.038-0.14-0.189-0.21-0.323-0.263
			c-1.182-0.46-2.363-0.921-3.545-1.382c-0.168-0.065-0.347-0.132-0.525-0.1c-0.203,0.037-0.359,0.196-0.5,0.348
			c-0.985,1.067-1.89,2.208-2.706,3.41c-1.153-0.485-2.358-0.849-3.588-1.082c-1.834,5.045-3.669,10.091-5.503,15.136
			c2.052,0.005,4.104,0.011,6.155,0.016c0.266,0.001,0.544-0.001,0.781-0.124c0.279-0.144,0.452-0.428,0.61-0.698
			C305.094,424.609,308.765,420.309,311.221,414.688z"/>
		<polygon fill="#AECCDC" points="249.388,481.664 273.364,488.147 307.276,425.27 296.684,419.686 263.751,453.917 248.731,438.88 
			231.07,462.056 		"/>
	</g>
	<g>
		<g>
			<g>
				<path fill="#59595B" d="M839.661,200.366c-3.959,3.889-4.541,10.967-4.528,16.326c0.019,7.929,3.074,14.633,5.626,21.945
					c0.188,0.538,0.423,1.13,0.942,1.365c0.608,0.276,1.36-0.108,1.691-0.688c0.332-0.581,0.336-1.29,0.262-1.954
					c-0.242-2.177-1.204-4.195-1.934-6.261c-2.415-6.842-2.045-14.562,1.6-20.835c1.432-2.462,3.989-5.088,1.999-10.383
					C844.021,196.426,842.179,197.893,839.661,200.366z"/>
				<path fill="#59595B" d="M854.955,220.296c5.729-1.537,11.901-1.361,17.911-1.111c6.556,0.274,13.408,0.693,18.956,3.485
					c2.845,1.432,5.621,3.872,6.813,7.139c0.515,1.409,0.684,2.96,0.326,4.436c-0.162,0.667-0.371,1.442-0.583,2.069
					c-0.319,0.938-0.947,1.067-1.771,1.373c-1.032,0.383-1.89,1.168-2.783,1.852c-4.168,3.189-9.07,3.468-13.926,4.358
					c-4.884,0.896-9.784,1.643-14.729,2.015c-8.058,0.606-22.327,0.668-25.283-7.433
					C837.12,230.901,847.368,222.331,854.955,220.296z"/>
				<path fill="#59595B" d="M888.457,233.583c0.851,0.689,1.93,0.981,2.982,1.224c3.374,0.777,5.932,2.564,9.379,2.354
					c11.671-0.71,11.104-16.696,0.562-20.183C893.344,214.321,879.305,226.167,888.457,233.583z"/>
				<path fill="#59595B" d="M852.155,234.151c-1.881-1.471-4.054-2.617-6.148-3.551c-0.461-0.206-0.939-0.407-1.444-0.426
					c-0.517-0.02-1.022,0.155-1.484,0.386c-2.793,1.398-4.097,5.175-2.762,7.998c0.429,0.908,1.076,1.693,1.75,2.437
					c1.908,2.102,4.102,3.962,5.728,6.29c2.984,4.271,1.709,7.895,0.74,12.546c-0.092,0.442-0.185,0.889-0.164,1.34
					c0.096,2.167,0.811,4.182,3.393,4.272c0.714,0.025,1.498-0.426,1.586-1.135c0.152-1.229-1.286-1.378-1.625-2.282
					c-0.348-0.93,0.543-1.934,0.944-2.704c1.063-2.04,2.052-4.133,2.876-6.281c1.535-4,2.717-8.778,1.175-12.965
					C855.823,237.645,854.154,235.715,852.155,234.151z"/>
				<path fill="#59595B" d="M869.517,255.43c0.301,0.57,0.606,1.192,0.509,1.829c-0.082,0.541-0.439,0.993-0.785,1.417
					c-0.756,0.928-1.512,1.855-2.268,2.783c-0.701,0.861-1.472,1.769-2.542,2.065s-2.467-0.381-2.456-1.491
					c0.013-1.414,1.929-1.864,2.834-2.952c1.097-1.318,0.495-3.336-0.434-4.777c-1.659-2.571-4.229-4.541-7.143-5.475
					c-0.958-0.308-1.97-0.515-2.815-1.059c-0.847-0.544-1.504-1.551-1.267-2.53c1.013-4.18,6.87-4.756,9.192-2.044
					C865.211,246.545,867.457,251.534,869.517,255.43z"/>
				<path fill="#59595B" d="M884.954,257.721c-0.251,0.582-0.537,1.198-1.055,1.5c-0.438,0.257-0.964,0.239-1.462,0.215
					c-1.089-0.053-2.178-0.106-3.267-0.159c-1.011-0.049-2.094-0.125-2.896-0.807c-0.801-0.682-1.07-2.206-0.256-2.86
					c1.037-0.833,2.413,0.435,3.699,0.512c4.059,0.243,4.591-6.705,2.701-9.268c-0.392-0.532-0.861-0.988-1.295-1.481
					c-0.923-1.049-1.731-2.3-2.256-3.644c-0.655-1.682-0.46-1.164,0.538-1.843c2.066-1.405,4.425-2.39,6.87-1.554
					c2.303,0.788,4.216,3.634,3.669,6.331C889.074,248.964,886.667,253.744,884.954,257.721z"/>
				<path fill="#59595B" d="M886.985,247.307c-0.062,1.539-0.124,3.083,0.018,4.617c0.157,1.717,0.569,3.428,0.418,5.144
					c-0.155,1.754-0.891,3.388-1.121,5.131c-0.081,0.617-0.089,1.287,0.21,1.819c0.3,0.532,1,0.827,1.461,0.464
					c1.538-2.813,3.115-5.757,3.358-9.032c0.2-2.712-0.527-5.54,0.261-8.116c0.511-1.667,1.59-3.021,2.188-4.641
					c0.544-1.476,1.225-3.277,0.677-4.859c-0.306-0.883-1.067-1.219-1.276-2.1c-0.034-0.144-0.092-0.312-0.224-0.342
					c-0.08-0.018-0.159,0.023-0.231,0.063c-1.458,0.807-4.742,1.793-5.389,3.473c-0.386,1.003-0.121,2.764-0.166,3.863
					C887.107,244.296,887.047,245.802,886.985,247.307z"/>
			</g>
			<path fill="#E89F40" d="M886.463,221.827c0,0,1.938,11.856,9.054,15.46l2.137-0.14c0,0-7.91-6.839-9.74-16.54L886.463,221.827z"
				/>
			<g>
				<polygon fill="#7C2B4A" points="837.923,705.649 844.472,712.198 857.569,705.649 857.569,699.1 844.472,699.1 				"/>
				<path fill="#7C2B4A" d="M897.308,241.673c0.481-0.073,0.963-0.148,1.443-0.231c0.881-0.392,1.576-1.201,1.638-2.16
					c0.087-1.346-1.309-2.637-2.607-2.274l-0.015,0.169c-0.8,0.222-1.515,0.905-1.851,1.698c-0.294,0.693-0.364,1.554,0.096,2.15
					C896.316,241.42,896.807,241.614,897.308,241.673z"/>
			</g>
		</g>
		<path fill="#59595B" d="M906.371,212.702c0.12-0.067,0.248,0.048,0.211,0.181c-0.258,0.923-0.188,1.921-0.113,2.885
			c0.18,2.315,0.359,4.631,0.538,6.946c-0.121-1.564-9.906,3.995-9.165-1.563C898.272,217.918,903.588,214.27,906.371,212.702z"/>
		<path fill="#59595B" d="M901.503,211.879c0.119-0.067,0.247,0.048,0.21,0.181c-0.258,0.923-0.188,1.921-0.113,2.885
			c0.18,2.315,0.359,4.63,0.538,6.946c-0.121-1.564-9.906,3.995-9.165-1.564C893.403,217.096,898.719,213.447,901.503,211.879z"/>
	</g>
	<g>
		<path fill="#334C60" d="M607.621,327.849V280.71h-18.209v-5.14h42.513v5.14h-18.21v47.139H607.621z"/>
		<path fill="#334C60" d="M657.109,290.476l-0.146,5.434c-1.127-0.392-2.423-0.587-3.892-0.587c-3.573,0-6.229,1.114-7.967,3.341
			c-1.737,2.228-2.605,4.932-2.605,8.113v21.073h-5.948v-26.58c0-3.818-0.195-7.269-0.588-10.353h5.654l0.588,6.828
			c0.929-2.496,2.423-4.405,4.479-5.727s4.406-1.982,7.049-1.982C654.956,290.035,656.082,290.182,657.109,290.476z"/>
		<path fill="#334C60" d="M698.595,290.917v36.933h-5.874v-6.682c-1.077,2.302-2.705,4.075-4.882,5.323
			c-2.179,1.249-4.713,1.873-7.6,1.873c-3.28,0-6.156-0.782-8.629-2.35c-2.472-1.566-4.38-3.781-5.727-6.645
			c-1.347-2.864-2.019-6.205-2.019-10.023c0-3.818,0.685-7.183,2.056-10.096c1.37-2.912,3.292-5.176,5.764-6.792
			c2.472-1.616,5.323-2.423,8.555-2.423c2.887,0,5.407,0.637,7.563,1.909c2.153,1.273,3.793,3.06,4.919,5.36v-6.388H698.595z
			 M689.783,319.736c1.958-2.471,2.938-5.984,2.938-10.537s-0.979-8.052-2.938-10.5c-1.957-2.447-4.747-3.671-8.37-3.671
			s-6.45,1.261-8.48,3.781c-2.032,2.521-3.046,6.033-3.046,10.536c0,4.505,1.001,7.979,3.009,10.427
			c2.007,2.448,4.847,3.671,8.518,3.671C685.036,323.443,687.826,322.208,689.783,319.736z"/>
		<path fill="#334C60" d="M740.3,290.99h5.947l-15.933,36.859h-5.654l-15.713-36.859h6.241l12.482,30.398L740.3,290.99z"/>
		<path fill="#334C60" d="M786.926,309.199h-27.094c0.048,4.699,1.138,8.249,3.268,10.646c2.129,2.399,5.225,3.598,9.288,3.598
			c4.307,0,8.271-1.443,11.895-4.332l1.982,4.332c-1.614,1.518-3.685,2.717-6.204,3.598c-2.521,0.881-5.104,1.322-7.746,1.322
			c-5.776,0-10.306-1.701-13.584-5.104c-3.28-3.401-4.92-8.064-4.92-13.987c0-3.769,0.734-7.11,2.203-10.023
			c1.468-2.912,3.524-5.176,6.168-6.792c2.644-1.616,5.653-2.423,9.03-2.423c4.896,0,8.738,1.604,11.528,4.81
			c2.79,3.206,4.186,7.625,4.186,13.253V309.199z M763.76,297.451c-1.934,1.861-3.17,4.479-3.708,7.856h21.515
			c-0.294-3.475-1.311-6.118-3.048-7.93c-1.737-1.81-4.149-2.717-7.233-2.717S765.693,295.591,763.76,297.451z"/>
		<path fill="#334C60" d="M799.627,327.849v-54.041h5.947v54.041H799.627z"/>
	</g>
	<path fill="#B22B48" d="M418.404,103.312c0,29.425,51.821,99.33,53.279,99.33c1.958,0,53.279-69.905,53.279-99.33
		c0-29.425-23.854-53.279-53.279-53.279S418.404,73.886,418.404,103.312z M446.578,99.484c0-13.865,11.24-25.105,25.105-25.105
		c13.865,0,25.105,11.24,25.105,25.105s-11.24,25.105-25.105,25.105C457.818,124.589,446.578,113.349,446.578,99.484z"/>
</g>
</svg>
